<svg xmlns="http://www.w3.org/2000/svg" viewBox="0 0 16.07 16.07"><defs><style>.cls-1{fill:#bcbec0;}</style></defs><title>Asset 3</title><g id="Layer_2" data-name="Layer 2"><g id="Layer_1-2" data-name="Layer 1"><path class="cls-1" d="M12.32,4.55a.27.27,0,0,0,.27-.27V4A.27.27,0,1,0,12,4v.27A.27.27,0,0,0,12.32,4.55Z"/><path class="cls-1" d="M12,5.62a.27.27,0,1,0,.54,0V5.36a.27.27,0,1,0-.54,0Z"/><path class="cls-1" d="M12,7a.27.27,0,1,0,.54,0V6.69a.27.27,0,1,0-.54,0Z"/><path class="cls-1" d="M11.25,4.55a.27.27,0,0,0,.27-.27V4A.27.27,0,1,0,11,4v.27A.27.27,0,0,0,11.25,4.55Z"/><path class="cls-1" d="M11.25,5.89a.27.27,0,0,0,.27-.27V5.36a.27.27,0,1,0-.54,0v.27A.27.27,0,0,0,11.25,5.89Z"/><path class="cls-1" d="M11.25,7.23A.27.27,0,0,0,11.51,7V6.69a.27.27,0,1,0-.54,0V7A.27.27,0,0,0,11.25,7.23Z"/><path class="cls-1" d="M13.39,4.55a.27.27,0,0,0,.27-.27V4a.27.27,0,0,0-.54,0v.27A.27.27,0,0,0,13.39,4.55Z"/><path class="cls-1" d="M13.12,5.62a.27.27,0,0,0,.54,0V5.36a.27.27,0,0,0-.54,0Z"/><path class="cls-1" d="M13.12,7a.27.27,0,0,0,.54,0V6.69a.27.27,0,0,0-.54,0Z"/><path class="cls-1" d="M15.71,8h-.44V2.14A2.14,2.14,0,0,0,13.12,0h-.8A.27.27,0,0,0,12,.27V1.63A1.34,1.34,0,0,0,11,2.95a.27.27,0,0,0,.27.27h2.14a.27.27,0,0,0,.27-.27,1.34,1.34,0,0,0-1.07-1.31V.54h.54a1.61,1.61,0,0,1,1.61,1.61V8H.36A.36.36,0,0,0,0,8.39H0v.35a.36.36,0,0,0,.36.36H15.71a.36.36,0,0,0,.36-.36h0V8.39A.36.36,0,0,0,15.71,8Z"/><path class="cls-1" d="M15.12,9.64H1a.14.14,0,0,0-.14.14h0c.1,1.91.93,3.88,2.14,4.49a1.07,1.07,0,1,0,1.71.19H11.4a1,1,0,0,0-.09.87,1.07,1.07,0,1,0,1.8-1.07c1.22-.61,2-2.58,2.14-4.49A.14.14,0,0,0,15.12,9.64Z"/></g></g></svg>