<svg xmlns="http://www.w3.org/2000/svg" viewBox="0 0 15.29 9.29"><defs><style>.cls-1{fill:#bcbec0;}</style></defs><title>Asset 4</title><g id="Layer_2" data-name="Layer 2"><g id="Layer_1-2" data-name="Layer 1"><path class="cls-1" d="M13.26,4.56h1.51V3.2a.51.51,0,0,0-.51-.51H5.75l.08.17a3.29,3.29,0,0,1,.26,1.28,3.16,3.16,0,0,1,0,.42Zm0,0"/><path class="cls-1" d="M2.79,1.43H2.62V4.56H5.46a2.72,2.72,0,0,0-.39-1.87A2.7,2.7,0,0,0,2.79,1.43Zm0,0"/><path class="cls-1" d="M.5,9.29h1a.5.5,0,0,0,.5-.5V7.18H13.26V8.79a.5.5,0,0,0,.5.5h1a.5.5,0,0,0,.5-.5V5.65a.5.5,0,0,0-.5-.5H2V.5a.5.5,0,0,0-.5-.5H.5A.5.5,0,0,0,0,.5V8.79a.5.5,0,0,0,.5.5Zm0,0"/></g></g></svg>