<svg xmlns="http://www.w3.org/2000/svg" viewBox="0 0 160 160"><defs><style>.cls-1{fill:#4c3791;}.cls-2{fill:#ffca2a;}.cls-3{fill:#f2b922;}.cls-4{fill:#53c4eb;}.cls-5{fill:#fff;}</style></defs><title>Asset 4</title><g id="Layer_2" data-name="Layer 2"><g id="Layer_1-2" data-name="Layer 1"><circle class="cls-1" cx="80" cy="80" r="80"/><path class="cls-2" d="M96.69,105.26,80.4,121a3.44,3.44,0,0,1-5.79-3l2.83-18.89a3.44,3.44,0,0,0-2.86-3.9L55.26,92.12A9.75,9.75,0,0,1,47.16,81l3.53-22.25A10.67,10.67,0,0,1,62.9,49.84l35.83,5.69a10.67,10.67,0,0,1,8.87,12.21l-3.79,23.85A24.28,24.28,0,0,1,96.69,105.26Z"/><rect class="cls-3" x="76.73" y="41.53" width="3.14" height="44.16" transform="translate(3.2 130.96) rotate(-80.98)"/><rect class="cls-3" x="75.66" y="48.24" width="3.14" height="44.16" transform="translate(-4.32 135.57) rotate(-80.98)"/><rect class="cls-3" x="74.6" y="54.95" width="3.14" height="44.16" transform="translate(-11.85 140.18) rotate(-80.98)"/><rect class="cls-3" x="73.53" y="61.66" width="3.14" height="44.16" transform="translate(-19.37 144.78) rotate(-80.98)"/><circle class="cls-4" cx="105.14" cy="61.96" r="14.02"/><path class="cls-5" d="M109.66,68.21h-8.44V66.12h3.05V58.91l-2.91.86V57.6l4-1.39h1.47v9.92h2.88Z"/></g></g></svg>