<?xml version="1.0" encoding="utf-8"?>
<!-- Generator: Adobe Illustrator 18.0.0, SVG Export Plug-In . SVG Version: 6.00 Build 0)  -->
<!DOCTYPE svg PUBLIC "-//W3C//DTD SVG 1.1//EN" "http://www.w3.org/Graphics/SVG/1.1/DTD/svg11.dtd">
<svg version="1.1" id="Layer_1" xmlns="http://www.w3.org/2000/svg" xmlns:xlink="http://www.w3.org/1999/xlink" x="0px" y="0px"
	 viewBox="0 0 300 300" enable-background="new 0 0 300 300" xml:space="preserve">
<g>
	<g>
		<path fill="#F1F2F2" d="M150.1,293.1C71.5,293,7.7,229.1,7.7,150.7S71.8,8.4,150.3,8.5s142.4,63.9,142.4,142.4
			C292.6,229.3,228.7,293.1,150.1,293.1z M150.3,45.5c-58.1,0-105.4,47.1-105.5,105.2c0,58,47.2,105.3,105.3,105.3
			c58.1,0,105.4-47.1,105.5-105.2C255.6,92.8,208.4,45.5,150.3,45.5z"/>
	</g>
	<g>
		<path fill="#FFC929" d="M156.9,292.9C82.5,296.3,19.8,242.5,9.3,171.8c-1.7-11.2,7.1-21.2,18.4-21.2h0c9.1,0,16.9,6.6,18.3,15.5
			c7.9,53.3,55.9,93.7,112.3,89.5c51.5-3.8,93.2-45.3,97.1-96.8c4.3-56.3-36.1-104.3-89.5-112.3c-9-1.3-15.5-9.2-15.5-18.3v0
			c0-11.3,10-20,21.2-18.3c70.7,10.6,124.5,73.3,121,147.6C289,230.5,229.8,289.5,156.9,292.9z"/>
	</g>
</g>
<g>
	<path fill="#D1D3D4" d="M116.2,148c0,5.6-4.2,9.4-9.6,9.4c-5.4,0-9.5-3.8-9.5-9.4c0-5.5,4.1-9.3,9.6-9.3
		C112,138.7,116.2,142.4,116.2,148z M111.3,147.9c0-2.8-2.1-4.7-4.7-4.7c-2.6,0-4.7,1.9-4.8,4.7c0,2.9,2.1,4.8,4.7,4.8
		C109.2,152.8,111.3,150.9,111.3,147.9z M105.7,171.6l22-32.2l4.6,0l-22,32.2L105.7,171.6z M141.6,163c0,5.6-4.2,9.4-9.6,9.4
		c-5.4,0-9.5-3.8-9.5-9.4c0-5.5,4.1-9.3,9.5-9.3C137.4,153.7,141.6,157.4,141.6,163z M136.8,163c0-2.8-2.1-4.7-4.7-4.7
		c-2.6,0-4.7,1.9-4.7,4.7c0,2.9,2.1,4.8,4.7,4.8C134.6,167.8,136.8,165.9,136.8,163z"/>
	<path fill="#D1D3D4" d="M168.4,143.4l-12.8,28.2l-7.5,0l12-25.9l-14.4,0l0-6.3l22.8,0L168.4,143.4z"/>
	<path fill="#D1D3D4" d="M182.4,150.8c6.8,0,11.3,4.4,11.3,10.4c0,6.4-4.8,11.1-11.8,11.1c-7,0-11.4-3.8-12.2-9.7l6.6,0
		c0.7,2.4,2.4,4,5.6,4c3.2,0,5.5-2.2,5.5-5.2c0-2.8-2.2-4.9-5.9-4.9l-9.4,0l0-17.2l20.3,0l0,6l-14.1,0l0,5.4L182.4,150.8z"/>
</g>
</svg>
