<?xml version="1.0" encoding="utf-8"?>
<!-- Generator: Adobe Illustrator 18.0.0, SVG Export Plug-In . SVG Version: 6.00 Build 0)  -->
<!DOCTYPE svg PUBLIC "-//W3C//DTD SVG 1.1//EN" "http://www.w3.org/Graphics/SVG/1.1/DTD/svg11.dtd">
<svg version="1.1" id="Layer_1" xmlns="http://www.w3.org/2000/svg" xmlns:xlink="http://www.w3.org/1999/xlink" x="0px" y="0px"
	 viewBox="0 0 300 300" enable-background="new 0 0 300 300" xml:space="preserve">
<g>
	<g opacity="0.92">
		<g>
			<path fill="#FFCA2A" d="M13.2,142.5L142.8,13.3c4.9-4.9,12.7-4.8,17.6,0l129.3,129.4c4.9,4.9,4.9,12.7,0,17.6L160.2,289.4
				c-4.9,4.9-12.7,4.8-17.6,0L13.2,160C8.4,155.2,8.4,147.3,13.2,142.5z"/>
		</g>
		<g>
			<path fill="#FFCA2A" d="M48.3,47.4l206.5,0.1c0.4,0,0.7,0.3,0.7,0.7l-0.2,206.3c0,0.4-0.3,0.7-0.7,0.7l-206.5-0.1
				c-0.4,0-0.7-0.3-0.7-0.7l0.2-206.3C47.6,47.7,47.9,47.4,48.3,47.4z"/>
		</g>
	</g>
	<g>
		<g>
			<polygon fill="#FFCA2A" points="194.6,47.5 108.5,47.5 47.5,108.3 47.5,194.3 108.3,255.1 194.4,255.2 255.4,194.4 255.4,108.4 
							"/>
		</g>
	</g>
	<g>
		<polygon fill="#FFFFFF" points="135.9,218 79.5,173.7 95,154 131.5,182.7 204.5,87.8 224.4,103.1 		"/>
	</g>
</g>
</svg>
