<svg xmlns="http://www.w3.org/2000/svg" viewBox="0 0 97.07 96.96"><defs><style>.cls-1{opacity:0.92;}.cls-2{fill:#ffca2a;}.cls-3{fill:#fff;}</style></defs><title>Asset 10</title><g id="Layer_2" data-name="Layer 2"><g id="INDIVIDUAL_DASHBOARD" data-name="INDIVIDUAL DASHBOARD"><g class="cls-1"><path class="cls-2" d="M1.25,45.44,45.56,1.24a4.26,4.26,0,0,1,6,0L95.83,45.51a4.25,4.25,0,0,1,0,6L51.51,95.72a4.26,4.26,0,0,1-6,0L1.25,51.45A4.25,4.25,0,0,1,1.25,45.44Z"/><rect class="cls-2" x="12.97" y="12.95" width="71.14" height="71.05" rx="4.26" ry="4.26" transform="matrix(-1, 0, 0, -1, 97.04, 96.99)"/></g><polygon class="cls-2" points="63.3 12.96 33.83 12.94 12.98 33.74 12.96 63.17 33.78 84 63.24 84.02 84.09 63.22 84.12 33.79 63.3 12.96"/><polygon class="cls-3" points="43.21 71.29 23.92 56.13 29.23 49.39 41.7 59.19 66.7 26.75 73.5 31.98 43.21 71.29"/></g></g></svg>