<?xml version="1.0" encoding="utf-8"?>
<!-- Generator: Adobe Illustrator 18.0.0, SVG Export Plug-In . SVG Version: 6.00 Build 0)  -->
<!DOCTYPE svg PUBLIC "-//W3C//DTD SVG 1.1//EN" "http://www.w3.org/Graphics/SVG/1.1/DTD/svg11.dtd">
<svg version="1.1" id="Layer_1" xmlns="http://www.w3.org/2000/svg" xmlns:xlink="http://www.w3.org/1999/xlink" x="0px" y="0px"
	 viewBox="0 0 48 48" enable-background="new 0 0 48 48" xml:space="preserve">
<circle fill="#4DC8EF" cx="24" cy="24" r="24"/>
<g>
	<path fill="#4DC8EF" d="M44.2,13.4c10.1,20.7-10.2,41-30.9,30.9c-3.8-1.8-6.8-4.9-8.6-8.6C-5.5,15,14.9-5.4,35.6,4.8
		C39.3,6.6,42.4,9.7,44.2,13.4z"/>
	<path fill="#FFFFFF" d="M14.1,28.7v4.1h4.1l12.1-12.1l-4.1-4.1L14.1,28.7z M33.5,17.5c0.4-0.4,0.4-1.1,0-1.5L31,13.4
		c-0.4-0.4-1.1-0.4-1.5,0l-2,2l4.1,4.1L33.5,17.5z"/>
</g>
</svg>
