<?xml version="1.0" encoding="utf-8"?>
<!-- Generator: Adobe Illustrator 18.0.0, SVG Export Plug-In . SVG Version: 6.00 Build 0)  -->
<!DOCTYPE svg PUBLIC "-//W3C//DTD SVG 1.1//EN" "http://www.w3.org/Graphics/SVG/1.1/DTD/svg11.dtd">
<svg version="1.1" id="Layer_1" xmlns="http://www.w3.org/2000/svg" xmlns:xlink="http://www.w3.org/1999/xlink" x="0px" y="0px"
	 viewBox="0 0 48 48" enable-background="new 0 0 48 48" xml:space="preserve">
<g>
	<path fill="#FFFFFF" d="M47.3,34.8H0.8c-0.4,0-0.7-0.3-0.7-0.7v-3.8c0-0.4,0.3-0.7,0.7-0.7h46.5c0.4,0,0.7,0.3,0.7,0.7v3.8
		C48,34.5,47.7,34.8,47.3,34.8z"/>
	<path fill="#FFFFFF" d="M42.5,26.8C48.4,35,39.2,44,30.8,38.2c-0.2-0.2-0.4-0.4-0.6-0.6c-5.9-8.2,3.3-17.2,11.6-11.4
		C42.1,26.4,42.3,26.6,42.5,26.8z"/>
	<path fill="#FFFFFF" d="M47.3,19.2H0.8c-0.4,0-0.7-0.3-0.7-0.7v-3.8c0-0.4,0.3-0.7,0.7-0.7h46.5c0.4,0,0.7,0.3,0.7,0.7v3.8
		C48,18.9,47.7,19.2,47.3,19.2z"/>
	<path fill="#FFFFFF" d="M26.5,11.2c5.9,8.2-3.3,17.2-11.6,11.4c-0.2-0.2-0.4-0.4-0.6-0.6c-5.9-8.2,3.3-17.2,11.6-11.4
		C26.1,10.8,26.3,11,26.5,11.2z"/>
</g>
</svg>
