<?xml version="1.0" encoding="utf-8"?>
<!-- Generator: Adobe Illustrator 18.0.0, SVG Export Plug-In . SVG Version: 6.00 Build 0)  -->
<!DOCTYPE svg PUBLIC "-//W3C//DTD SVG 1.1//EN" "http://www.w3.org/Graphics/SVG/1.1/DTD/svg11.dtd">
<svg version="1.1" id="Layer_1" xmlns="http://www.w3.org/2000/svg" xmlns:xlink="http://www.w3.org/1999/xlink" x="0px" y="0px"
	 viewBox="0 0 300 143" enable-background="new 0 0 300 143" xml:space="preserve">
<g>
	<g>
		<path fill="#BCBDBF" d="M111,45.3h15.1v7.6H111v12.4h-8.7V30.2h26.2v7.7H111V45.3z"/>
		<path fill="#BCBDBF" d="M140,65.2h-8.7V30.1h8.7V65.2z"/>
		<path fill="#BCBDBF" d="M153.8,55.1v10.2h-8.7V30.2h15.3c8.7,0,14.6,4.7,14.6,12.3c0,4.9-2.5,8.8-6.7,10.9l9,11.9h-10.5L159.2,55
			L153.8,55.1L153.8,55.1z M160.3,47.2c3.4,0,6-1.9,6-4.7s-2.6-4.6-6-4.6h-6.4v9.4h6.4V47.2z"/>
		<path fill="#BCBDBF" d="M207.6,41h-8.8c-0.5-2.6-2.1-4.4-5.7-4.4c-3,0-5,1.2-5,3.5c0,1.9,1.4,2.7,4,3.3l4.9,1.1
			c6.4,1.4,10.6,4,10.6,10c0,7-5.8,11.4-14.6,11.4c-7.9,0-15-3.7-15.8-12.4h8.7c0.6,3.1,3.3,5,7.4,5c3.3,0,5-1.2,5-3.1
			c0-1.2-0.7-2.4-3.7-3l-5.8-1.3c-6.9-1.5-10.2-4.7-10.2-10.3c0-7,5.7-11.5,13.9-11.5C198.4,29.4,206.8,31.6,207.6,41z"/>
		<path fill="#BCBDBF" d="M228.6,37.9v27.3H220V37.8h-11.2V30h31.1v7.8C239.9,37.8,228.6,37.8,228.6,37.9z"/>
		<path fill="#BCBDBF" d="M140.1,108.7h-8.7V91l-7.8,12v0.1h-4.9V103l-7.8-12.1l0.1,17.7h-8.7V73.5h6.5l12.4,18.7l12.4-18.7h6.5
			V108.7z"/>
		<path fill="#BCBDBF" d="M181.5,91.2c0,10.2-8,18.3-18.6,18.3s-18.6-8-18.6-18.3c0-10.2,8-18.3,18.6-18.3S181.5,81,181.5,91.2z
			 M172.8,91.2c0-5.5-4.1-10.2-9.8-10.2c-5.7,0-9.8,4.6-9.8,10.2s4.1,10.2,9.8,10.2C168.6,101.3,172.8,96.7,172.8,91.2z"/>
		<path fill="#BCBDBF" d="M204.1,108.8h-8.8l-15.2-35.3h9.6l10,23.8l10-23.8h9.6L204.1,108.8z"/>
		<path fill="#BCBDBF" d="M230.3,87.6h15.6V95h-15.6v6.1h17.8v7.6h-26.5V73.6h26.5v7.6h-17.8V87.6z"/>
		<path fill="#BCBDBF" d="M260.6,98.6v10.2H252V73.7h15.3c8.7,0,14.6,4.7,14.6,12.3c0,4.9-2.5,8.8-6.7,10.9l9,11.9h-10.5L266,98.6
			H260.6z M267,90.7c3.4,0,6-1.9,6-4.7s-2.6-4.6-6-4.6h-6.4v9.4L267,90.7L267,90.7z"/>
	</g>
	<g>
		<path fill="#BCBDBF" d="M109.8,124c0,1.3-1,2.2-2.8,2.2h-4.1v-7.8h3.9c1.7,0,2.7,0.8,2.7,2.1c0,0.7-0.4,1.5-1.1,1.7
			C109.5,122.3,109.8,123.1,109.8,124z M105,121.5h1.6c0.7,0,1.1-0.3,1.1-0.8s-0.4-0.8-1.1-0.8H105V121.5z M106.8,124.5
			c0.8,0,1.2-0.4,1.2-0.8c0-0.5-0.4-0.7-1.1-0.7H105v1.5H106.8z"/>
		<path fill="#BCBDBF" d="M119.8,124.8l-0.5,1.3h-2.1l3.3-7.9h1.9l3.3,7.9h-2.1l-0.5-1.3H119.8z M121.3,120.5l-1,2.6h2L121.3,120.5z
			"/>
		<path fill="#BCBDBF" d="M138.8,122.8h2c-0.3,2-1.8,3.4-3.9,3.4c-2.4,0-4.1-1.7-4.1-4.1s1.8-4.1,4.1-4.1c2.1,0,3.7,1.4,3.9,3.4h-2
			c-0.2-1-0.9-1.6-1.9-1.6c-1.3,0-2.2,1-2.2,2.3s0.9,2.3,2.2,2.3C137.9,124.5,138.5,123.8,138.8,122.8z"/>
		<path fill="#BCBDBF" d="M151,124.6v1.6h-1.9v-7.8h1.9v3.6l3.1-3.6h2.3l-3,3.4l3.2,4.4h-2.4l-2.2-2.9L151,124.6z"/>
		<path fill="#BCBDBF" d="M166.4,126.2h-1.9v-7.8h1.9V126.2z"/>
		<path fill="#BCBDBF" d="M182,126.2h-1.5l-3.8-4.3v4.3h-1.9v-7.8h1.5l3.8,4.4v-4.4h1.9V126.2z"/>
		<path fill="#BCBDBF" d="M198.4,126.2h-1.5l-0.1-0.9c-0.6,0.7-1.4,1.1-2.5,1.1c-2.5,0-4.2-1.7-4.2-4c0-2.4,1.8-4.2,4.2-4.2
			c1.9,0,3.6,1.1,3.9,2.9h-2c-0.3-0.9-1.1-1.2-1.8-1.2c-1.3,0-2.3,0.9-2.3,2.3c0,1.2,0.9,2.2,2.3,2.2c0.9,0,1.6-0.4,2-1.2h-2.2v-1.5
			h4.2L198.4,126.2L198.4,126.2z"/>
		<path fill="#BCBDBF" d="M220.1,123.8v2.4h-2v-2.4l-3.1-5.5h2.2l1.9,3.4l1.9-3.4h2.2L220.1,123.8z"/>
		<path fill="#BCBDBF" d="M238.5,122.2c0,2.3-1.8,4.1-4.1,4.1c-2.4,0-4.1-1.8-4.1-4.1s1.8-4.1,4.1-4.1
			C236.6,118.2,238.5,120,238.5,122.2z M236.5,122.2c0-1.2-0.9-2.3-2.2-2.3c-1.3,0-2.2,1-2.2,2.3c0,1.2,0.9,2.3,2.2,2.3
			S236.5,123.5,236.5,122.2z"/>
		<path fill="#BCBDBF" d="M253.8,122.5c0,2.4-1.4,3.8-3.6,3.8c-2.2,0-3.6-1.4-3.6-3.8v-4.2h2v4.2c0,1.2,0.7,2,1.7,2s1.7-0.8,1.7-2
			v-4.2h2v4.2H253.8z"/>
		<path fill="#BCBDBF" d="M279.3,122.5c0,2.4-1.4,3.8-3.6,3.8s-3.6-1.4-3.6-3.8v-4.2h2v4.2c0,1.2,0.7,2,1.7,2s1.7-0.8,1.7-2v-4.2h2
			v4.2H279.3z"/>
		<path fill="#BCBDBF" d="M290.8,118.3c2,0,3.3,1.1,3.3,2.9c0,1.8-1.3,3-3.5,3h-1.1v2h-1.9v-7.8L290.8,118.3L290.8,118.3z
			 M290.6,122.5c0.9,0,1.4-0.5,1.4-1.3c0-0.7-0.6-1.2-1.4-1.2h-1.2v2.4h1.2V122.5z"/>
	</g>
	<g>
		<path fill="#BCBDBF" d="M33.5,134.6c-5.5,0-10-4.5-10-10V60.2h-2c-8.3,0-15.1-6.8-15.1-15.1s6.8-15.1,15.1-15.1h2.4
			c2-12.3,12.7-21.6,25.5-21.6h21.8c8.3,0,15.1,6.8,15.1,15.1s-6.8,15.1-15.1,15.1H32.1c0,6.4,0,10.5,0,13.1c10.9,0,39.2,0,39.2,0
			c8.3,0,15,6.8,15,15.1s-6.8,15.1-15.1,15.1H54.6c-0.5,0-1,0.4-1,1v31.7C53.6,125.6,44.6,134.6,33.5,134.6z M32,60.2v64.5
			c0,0.8,0.6,1.4,1.4,1.4c6.4,0,11.6-5.2,11.6-11.6V82.7c0-5.2,4.3-9.5,9.5-9.5h16.7c3.6,0,6.5-2.9,6.5-6.5s-2.9-6.5-6.5-6.5
			C71.2,60.3,43,60.2,32,60.2z M21.5,38.7c-3.6,0-6.5,2.9-6.5,6.5c0,3.6,2.9,6.5,6.5,6.5h2c0-3.8,0-9.3,0-13.1L21.5,38.7L21.5,38.7z
			 M49.4,17c-8.1,0-14.9,5.6-16.8,13.1h38.6c3.6,0,6.5-2.9,6.5-6.5s-2.9-6.5-6.5-6.5L49.4,17L49.4,17z"/>
	</g>
</g>
</svg>
