<svg xmlns="http://www.w3.org/2000/svg" viewBox="0 0 99.32 170.08"><defs><style>.cls-1{fill:#ffc929;}.cls-2{fill:#e5e6e6;}.cls-3{fill:#b2b2b2;}</style></defs><title>Asset 7</title><g id="Layer_2" data-name="Layer 2"><g id="Layer_9" data-name="Layer 9"><path class="cls-1" d="M99.23,39.19v53A7.45,7.45,0,0,1,97,97.5L51.44,142.37c-4.79,4.72-13,1.38-13-5.3V102.8a7.55,7.55,0,0,0-7.61-7.49H8.08A7.55,7.55,0,0,1,.47,87.81V39.19a7.37,7.37,0,0,1,.68-3.08,7.49,7.49,0,0,1,2.28-2.86L45.2,1.56a7.7,7.7,0,0,1,9.29,0L96.27,33.25a7.47,7.47,0,0,1,3,5.94"/><path class="cls-2" d="M55.86,169.94H54.3a.19.19,0,0,1-.2-.19V158.2a.19.19,0,0,1,.2-.19h1.56a.19.19,0,0,1,.19.19v11.55a.19.19,0,0,1-.19.19"/><path class="cls-3" d="M9.24,169.4a.2.2,0,0,1-.21-.17l-2.22-7.81h0l-2.24,7.81a.2.2,0,0,1-.2.17H3.06a.2.2,0,0,1-.21-.17L0,158.15c0-.11,0-.17.14-.17h1.6a.19.19,0,0,1,.21.17l1.84,7.7h0L6,158.15A.21.21,0,0,1,6.2,158H7.39a.2.2,0,0,1,.2.17l2.22,7.7h0l1.79-7.7c0-.11.08-.17.21-.17h1.59c.11,0,.16.06.14.17l-2.83,11.09a.19.19,0,0,1-.21.17Z"/><path class="cls-3" d="M18.52,165.25,17,160.82h-.05l-1.55,4.44ZM16,158.15a.21.21,0,0,1,.22-.17h1.57a.21.21,0,0,1,.22.17l3.92,11.09c0,.11,0,.17-.12.17H20.12a.21.21,0,0,1-.22-.17L19.13,167H14.77L14,169.24a.21.21,0,0,1-.22.17H12.13c-.11,0-.15-.06-.12-.17Z"/><path class="cls-3" d="M29.26,165.25l-1.54-4.44h-.05l-1.55,4.44Zm-2.54-7.11a.21.21,0,0,1,.22-.17h1.57a.22.22,0,0,1,.22.17l3.92,11.09c0,.11,0,.17-.12.17H30.87a.21.21,0,0,1-.22-.17L29.88,167H25.51l-.77,2.22a.21.21,0,0,1-.22.17H22.87c-.11,0-.15-.06-.12-.17Z"/><path class="cls-3" d="M38.34,163a1.86,1.86,0,0,0,1.29-.43,1.49,1.49,0,0,0,.49-1.17,1.51,1.51,0,0,0-.49-1.19,1.86,1.86,0,0,0-1.29-.43H35.87a.09.09,0,0,0-.1.1v3a.09.09,0,0,0,.1.1Zm2,6.42a.25.25,0,0,1-.26-.17l-2.22-4.45h-2a.09.09,0,0,0-.1.1v4.35a.15.15,0,0,1-.17.17H33.92a.15.15,0,0,1-.17-.17V158.13a.15.15,0,0,1,.17-.17h4.49a4.19,4.19,0,0,1,1.48.25,3.62,3.62,0,0,1,1.17.7,3.16,3.16,0,0,1,.78,1.08,3.37,3.37,0,0,1,.28,1.39,3.24,3.24,0,0,1-.6,2,3.36,3.36,0,0,1-1.6,1.19l2.44,4.66a.13.13,0,0,1,0,.15.14.14,0,0,1-.13.07Z"/><path class="cls-3" d="M43.37,158.13a.15.15,0,0,1,.17-.17h7.27a.15.15,0,0,1,.17.17v1.46a.15.15,0,0,1-.17.17H45.49a.09.09,0,0,0-.1.1v2.89a.09.09,0,0,0,.1.1H50a.15.15,0,0,1,.17.17v1.46a.15.15,0,0,1-.17.17H45.49a.09.09,0,0,0-.1.1v4.49a.15.15,0,0,1-.17.17H43.54a.15.15,0,0,1-.17-.17Z"/><path class="cls-3" d="M73,160.16a.17.17,0,0,1-.19-.19v-1.63a.17.17,0,0,1,.19-.19h1.83a.17.17,0,0,1,.19.19V160a.17.17,0,0,1-.19.19Zm.83,3.41a1.62,1.62,0,0,0-1.33.57,2.46,2.46,0,0,0-.46,1.59,2.58,2.58,0,0,0,.45,1.72,2.11,2.11,0,0,0,2.69,0,2.44,2.44,0,0,0,.44-1.65q0-2.26-1.78-2.26M63.61,169.8a2.2,2.2,0,0,1-1.71-.58,2.66,2.66,0,0,1-.51-1.8v-4a.17.17,0,0,1,.19-.19h1.75a.17.17,0,0,1,.19.19v3.54a1.08,1.08,0,0,0,.22.78,1,1,0,0,0,.69.22h5.92a4.28,4.28,0,0,1-.44-2.07,5.37,5.37,0,0,1,.31-1.94,3.31,3.31,0,0,1,.86-1.29,3.38,3.38,0,0,1,1.24-.71,4.92,4.92,0,0,1,1.5-.22,5.2,5.2,0,0,1,1.56.22,3.18,3.18,0,0,1,1.24.71,3.27,3.27,0,0,1,.82,1.29,5.7,5.7,0,0,1,.29,1.95,5.25,5.25,0,0,1-.29,1.85,2.93,2.93,0,0,1-2.05,1.88,6,6,0,0,1-1.58.2Z"/><path class="cls-3" d="M80.08,170a.17.17,0,0,1-.19-.19v-1.5a.17.17,0,0,1,.19-.19h.42a1.48,1.48,0,0,0,1.15-.39,1.75,1.75,0,0,0,.35-1.2v-6a.17.17,0,0,1,.19-.19h1.75a.17.17,0,0,1,.19.19v6q0,3.43-3.34,3.43Z"/><rect class="cls-3" x="86.87" y="158.04" width="2.13" height="12.04" rx="0.19" ry="0.19"/><path class="cls-3" d="M95.44,160a1.59,1.59,0,0,0-1.35.63,2.76,2.76,0,0,0-.47,1.7,2.1,2.1,0,0,0,.48,1.6,2,2,0,0,0,1.4.43h1.69v-2.12a2.8,2.8,0,0,0-.42-1.67,1.55,1.55,0,0,0-1.33-.57m-.17,6.24a5.85,5.85,0,0,1-1.59-.2,2.7,2.7,0,0,1-1.17-.66,3,3,0,0,1-.73-1.19,6.33,6.33,0,0,1,.06-3.75,3.58,3.58,0,0,1,.86-1.33,3.3,3.3,0,0,1,1.25-.75,4.67,4.67,0,0,1,1.49-.23,5.21,5.21,0,0,1,1.57.22,3.11,3.11,0,0,1,1.23.71,3.24,3.24,0,0,1,.8,1.27,5.67,5.67,0,0,1,.29,1.93v4.38a3.28,3.28,0,0,1-.9,2.56,3.81,3.81,0,0,1-2.62.8H93.23a.17.17,0,0,1-.19-.19v-1.5a.17.17,0,0,1,.19-.19h2.22a3.57,3.57,0,0,0,.7-.06,1.15,1.15,0,0,0,.55-.27,1.31,1.31,0,0,0,.35-.58,3.25,3.25,0,0,0,.12-1Z"/></g></g></svg>