<?xml version="1.0" encoding="utf-8"?>
<!-- Generator: Adobe Illustrator 18.0.0, SVG Export Plug-In . SVG Version: 6.00 Build 0)  -->
<!DOCTYPE svg PUBLIC "-//W3C//DTD SVG 1.1//EN" "http://www.w3.org/Graphics/SVG/1.1/DTD/svg11.dtd">
<svg version="1.1" id="Layer_1" xmlns="http://www.w3.org/2000/svg" xmlns:xlink="http://www.w3.org/1999/xlink" x="0px" y="0px"
	 viewBox="0 0 300 300" enable-background="new 0 0 300 300" xml:space="preserve">
<g id="qXH52v.tif_50_">
	<g>
		<path fill="#BCBDBF" d="M160.3,291.7c-6.3,0-12.6,0-18.9,0c-0.8-0.2-1.6-0.5-2.4-0.5c-34.7-3.1-64.4-16.9-88.9-41.4
			c-25.4-25.4-38.8-56.4-41.5-92.1c-0.9-12.8,0.3-25.5,3.1-38C19.4,85,37.5,57,65.7,35.6c22.8-17.3,48.7-26.2,77-28.3
			c12.7-0.9,25.3,0.3,37.8,3c34.9,7.7,63,25.9,84.5,54.4c14.4,19.1,23.1,40.5,26.6,64.1c0.5,3.7,1.1,7.5,1.6,11.2
			c0,6.3,0,12.6,0,18.9c-0.2,0.7-0.4,1.4-0.5,2.1c-1.2,7.6-1.9,15.3-3.8,22.7c-8,32.5-25.7,58.7-52.1,79.1
			c-19.4,14.9-41.3,24-65.5,27.5C167.6,290.7,163.9,291.2,160.3,291.7z M141.2,102.4c-0.3-0.1-0.5-0.3-0.6-0.3
			c-16.5,0-32.9-0.1-49.4,0c-0.7,0-1.8,1.1-2,1.9c-1.2,6.4-2.4,12.9-3.2,19.4c-0.7,5.4-1,10.8-1.4,16.4c19.1,0,37.9,0,56.7,0
			C141.2,127.2,141.2,114.8,141.2,102.4z M217,159.1c-19,0-37.8,0-56.5,0c0,12.6,0,25.1,0,37.7c5.2,0,10.3,0,15.4,0
			c11.3,0,22.6,0,33.9-0.1c0.9,0,2.5-0.8,2.6-1.5C215,183.5,216.5,171.5,217,159.1z M141.2,196.8c0-12.9,0-25.3,0-37.7
			c-18.9,0-37.7,0-57.3,0c1.7,11.9,3.5,23.3,5,34.9c0.3,2.4,1.4,2.9,3.6,2.9c15.3-0.1,30.5,0,45.8,0
			C139.2,196.8,140.1,196.8,141.2,196.8z M216.9,139.8c0-0.9,0.1-1.8,0-2.6c-1.4-10.7-2.8-21.4-4.1-32.2c-0.3-2.4-1.2-3.2-3.7-3.1
			c-15.3,0.1-30.5,0.1-45.8,0.1c-0.9,0-1.8,0.1-2.8,0.1c0,12.7,0,25.2,0,37.7C179.4,139.8,198.1,139.8,216.9,139.8z M95.1,215.9
			c0.3,0.9,0.4,1.4,0.6,1.9c4.2,8.8,8,17.9,12.9,26.3c5.2,9,12.2,16.8,21.3,22.2c3.5,2.1,7.3,3.6,11.3,5.5c0-19.1,0-37.5,0-56
			C125.8,215.9,110.6,215.9,95.1,215.9z M160.4,271.3c0.7-0.2,1.4-0.2,2-0.4c6.1-2,11.4-5.2,16.2-9.4c11.3-10,18.8-22.7,24.7-36.4
			c1.2-2.9,2.3-5.9,3.5-9c-15.8,0-31,0-46.3,0C160.4,234.5,160.4,252.8,160.4,271.3z M141.3,27.5c-1.5,0.5-2.8,0.8-4.1,1.3
			c-6.7,2.6-12.4,6.6-17.4,11.7c-9.6,9.6-16.2,21.1-21.4,33.4c-1.2,2.9-2.3,5.9-3.5,9c15.8,0,31,0,46.3,0
			C141.3,64.4,141.3,46.1,141.3,27.5z M160.5,27.5c0,18.6,0,36.9,0,55.3c15.4,0,30.6,0,46,0c-0.2-0.8-0.3-1.3-0.5-1.8
			c-4.3-8.9-8.2-18-13-26.6c-4.4-7.7-10.4-14.4-17.7-19.7C170.9,31.6,166.1,28.8,160.5,27.5z M231.9,196.8c10.4,0,20.9,0,31.5-0.1
			c0.7,0,1.7-1,2-1.7c2.1-6.3,4.3-12.6,5.8-19c1.3-5.5,1.9-11.2,2.8-16.8c-13,0-25.4,0-37.5,0C235,171.8,233.5,184.1,231.9,196.8z
			 M65.2,159.1c-12.2,0-24.6,0-37.1,0c0,0.8-0.1,1.5,0,2.1c1.1,11.4,3.7,22.4,7.8,33.1c0.7,1.9,1.6,2.7,3.7,2.7
			c9.2-0.1,18.5-0.1,27.7-0.1c0.9,0,1.8,0,2.4,0C68.2,184.2,66.7,171.8,65.2,159.1z M236.5,139.8c12.2,0,24.6,0,37.1,0
			c0-0.8,0.1-1.5,0-2.1c-1.1-11.4-3.7-22.4-7.8-33.1c-0.7-1.9-1.6-2.7-3.7-2.7c-9.2,0.1-18.5,0.1-27.7,0.1c-0.9,0-1.8,0-2.4,0
			C233.5,114.7,235,127.1,236.5,139.8z M65.1,139.8c1.6-12.7,3.1-25.1,4.6-37.6c0,0-0.3-0.2-0.7-0.2c-10.2,0-20.3-0.1-30.5,0.1
			c-0.8,0-2,1-2.2,1.8c-2.3,7.7-4.7,15.3-6.6,23.1c-1,4.1-1.3,8.5-1.9,12.8C40.7,139.8,53,139.8,65.1,139.8z M47.2,83
			c8.7,0,16.9-0.1,25.1,0.1c2.4,0,3.4-0.8,4.1-3c4.8-14.4,11.2-28,20-40.3c0.2-0.2,0.2-0.5,0.5-1C77.4,47.5,57.1,66,47.2,83z
			 M46.9,215.8c12.9,19.6,29.2,34.2,50.2,44.6c-2.6-4-4.8-7.4-6.9-10.9c-5.9-9.9-10.4-20.4-14.1-31.3c-0.3-0.9-1.4-2.3-2.1-2.3
			C65.2,215.8,56.4,215.8,46.9,215.8z M205,259.9c20.5-9.9,36.9-24.4,49.7-44c-9.5,0-18.4,0-27.2,0.1c-0.6,0-1.4,1-1.7,1.7
			c-1.6,4.1-3,8.4-4.7,12.4C216.7,240.5,211.5,250.5,205,259.9z M254.6,82.8c-12.7-19.3-29-33.9-49.7-44.1c0.1,0.6,0.1,0.8,0.2,0.9
			c9.1,12.7,15.6,26.6,20.5,41.3c0.6,1.7,1.4,2.3,3.2,2.2c7.8-0.1,15.6,0,23.3-0.1C252.8,83,253.5,82.9,254.6,82.8z"/>
	</g>
</g>
</svg>
