<?xml version="1.0" encoding="utf-8"?>
<!-- Generator: Adobe Illustrator 21.1.0, SVG Export Plug-In . SVG Version: 6.00 Build 0)  -->
<svg version="1.1" id="Layer_1" xmlns="http://www.w3.org/2000/svg" xmlns:xlink="http://www.w3.org/1999/xlink" x="0px" y="0px"
	 viewBox="0 0 286.3 286.3" style="enable-background:new 0 0 286.3 286.3;" xml:space="preserve">
<style type="text/css">
	.st0{clip-path:url(#SVGID_2_);}
	.st1{fill:url(#SVGID_3_);}
	.st2{fill:url(#SVGID_4_);}
	.st3{fill:#FFFFFF;fill-opacity:0;}
	.st4{opacity:0.25;fill:#FFF2CA;enable-background:new    ;}
	.st5{opacity:0.5;fill:#FFE495;enable-background:new    ;}
	.st6{opacity:0.75;fill:#FFD75F;enable-background:new    ;}
	.st7{fill:#FFCA2A;}
	.st8{fill:url(#SVGID_5_);}
	.st9{fill:#55C3EA;}
	.st10{fill:#3E84B6;}
	.st11{fill:#48ADD8;}
	.st12{fill:#356FA2;}
	.st13{fill:#4297C7;}
	.st14{fill:#30588F;}
	.st15{fill:#29427F;}
	.st16{fill:url(#SVGID_6_);}
</style>
<title>404-01</title>
<g>
	<defs>
		<circle id="SVGID_1_" cx="142.6" cy="143.6" r="138"/>
	</defs>
	<clipPath id="SVGID_2_">
		<use xlink:href="#SVGID_1_"  style="overflow:visible;"/>
	</clipPath>
	<g class="st0">
		
			<linearGradient id="SVGID_3_" gradientUnits="userSpaceOnUse" x1="143.6514" y1="-32.9023" x2="143.6514" y2="257.9577" gradientTransform="matrix(1 0 0 -1 0 266.6973)">
			<stop  offset="0" style="stop-color:#29427F"/>
			<stop  offset="0.96" style="stop-color:#55C3EA"/>
		</linearGradient>
		<path class="st1" d="M143.6,280.6c-75.7,0-137-61.3-137-137s61.3-137,137-137c75.3,0,136.4,60.7,137,136
			C280.7,218.5,219.5,280.1,143.6,280.6z"/>
		
			<linearGradient id="SVGID_4_" gradientUnits="userSpaceOnUse" x1="143.6496" y1="-32.9023" x2="143.6496" y2="257.9577" gradientTransform="matrix(1 0 0 -1 0 266.6973)">
			<stop  offset="0" style="stop-color:#29427F"/>
			<stop  offset="0.96" style="stop-color:#55C3EA"/>
		</linearGradient>
		<circle class="st2" cx="143.6" cy="142.6" r="138"/>
		<path class="st3" d="M151.6,68.6c-37.6,0-68,30.4-68,68s30.4,68,68,68s68-30.4,68-68S189.2,68.6,151.6,68.6z"/>
		<path class="st4" d="M151.6,75.6c-33.7,0-61,27.3-61,61s27.3,61,61,61s61-27.3,61-61S185.3,75.6,151.6,75.6z"/>
		<path class="st5" d="M151.6,83.6c-29.8,0-54,24.2-54,54s24.2,54,54,54s54-24.2,54-54S181.5,83.6,151.6,83.6z"/>
		<path class="st6" d="M151.6,90.6c-25.4,0-46,20.6-46,46s20.6,46,46,46s46-20.6,46-46S177.1,90.6,151.6,90.6L151.6,90.6z"/>
		<circle class="st7" cx="151.6" cy="136.6" r="39"/>
		
			<linearGradient id="SVGID_5_" gradientUnits="userSpaceOnUse" x1="135.0023" y1="204.633" x2="153.4023" y2="-42.857" gradientTransform="matrix(1 0 0 -1 0 266.6973)">
			<stop  offset="0" style="stop-color:#29427F"/>
			<stop  offset="0.96" style="stop-color:#55C3EA"/>
		</linearGradient>
		<path class="st8" d="M143.6,280.6c65-0.5,120.8-46.4,134-110c-88-34-181-34-269,2C22.7,235.9,78.9,280.8,143.6,280.6z"/>
		<path class="st9" d="M41.6,76.6l-16-5v4l15,11l-6,56h13l2-55l16-14l10,2h-3l2-2h-7l5-5l0,0l-14,7v-5l5-4l0,0l-6,3l-2-5l0,0v12
			l-5,3l3-34l16-17h-1l-2,2l0,0l-2,2l0,0l-9,6l-12,10h1L41.6,76.6z"/>
		<path class="st10" d="M36.6,102.6l-17-10l-2,4l15,14l-21,52l16,3l6-23l17-19l13-3l7,2h1l-7-3l3-7h-2l-4,7h-6l8-9v-2l-9,8v-4h-2v5
			l-13,9l25-64l6-14l13-30l-13,8v3h-2l-7,5l4,5L36.6,102.6z"/>
		<path class="st11" d="M64.6,70.6l-14,46l-18-8l-2,4l16,13l-15,53h16l9-45l15-21l13-5h8l-7-2l2-7h-2l-3,8h-6l7-10v-2l-8,9v-4h-2v5
			l-12,13l12-44l13-6l12,2l4,2h1l-4-3l3-3l0,0l-4,2l-7-2l10-3l0,0l-13,1v-2l4-6h-1l-4,4l-3-4h-1l3,5l-3,2h-7l2-6l9-42l-9,5l-10,41
			l-22-15l-7,7l10,3L64.6,70.6z"/>
		<path class="st12" d="M44.6,84.6l-4,14l-23-10l-2,5l22,16l-19,71h21l19-93l27-15l15,4h1l-5-2h-2l-5-2l9-5h-1l-23,6h-5l-9,3l14-46
			l2-8l-13,8l-15,41l-10-5l-7-3l-8,12l4-3L44.6,84.6z"/>
		<path class="st10" d="M20.6,186.6h23l9-76l28-20l17,4h1l-6-2l3-2h-1l-5,2l-6-2l10-6h-1l-24,9v-7l9-5l0,0l-10,3l-2-7h-1v8l-2,9
			l-9,3l8-47l29-22h-1l-4,2v-4l5-7l0,0l-5,6l-5-3h-1l4,3l-3,6l-17,10l3-13c-10,6.8-19.1,14.9-27,24l7,4l-8,38l-21-7l-3,7l21,14
			L20.6,186.6z"/>
		<path class="st13" d="M12.6,97.6L12.6,97.6z"/>
		<path class="st13" d="M30.6,110.6l17,2h1l-6-2l2-3h-1l-4,2l-6-2l8-8h-1l-21,16l-2-7l8-7l0,0l-9,6l-3-10h-1l2,8v11l-8,5
			c-2.7,19.1-1.3,38.5,4,57l-3-42L30.6,110.6z"/>
		<path class="st10" d="M60.6,199.6h12l2-2l-12-3l3-12h-3l-5,13h-10l12-17v-3l-16,16v-7l-2,2v9l-17,17l5,8l10-14L60.6,199.6z"/>
		<path class="st10" d="M52.6,104.6l8-24l20-60l-20,12l-6,16l-7-5l-9,9l10,12l-35,111l-4-2c2.9,12.9,7.6,25.4,14,37L52.6,104.6z"/>
		<path class="st12" d="M47.6,175.6l20-10h12v-3l-13-2l2-13h-1l-3,13l-10,2l10-18v-3l-14,18v-7l-2,2v9l-17,21l13-75l21-11h20l7,3h2
			l-7-5l4-5h-1l-7,5l-12-3l15-6v-2l-20,5v-3l6-11h-2l-5,8l-6-6v2l6,7l-5,4l-13,4l2-10l5-48l-16,16l-5,36l-14-7l-5,12l15,11l-16,79
			h-2c3.5,11.6,8.6,22.7,15,33v-5L47.6,175.6z"/>
		<path class="st14" d="M76.6,134.6l21,10h2l-7-4l-3-2l-7-5l14-5h-1l-35,8h-8l-13,2l31-68l5-11l20-45l-14,5l-58,105l-15-9l0,0
			c-1.5,6.6-2.5,13.3-3,20l8,7l-7,16c1.6,12.7,4.9,25.2,10,37l18-46L76.6,134.6z"/>
		<path class="st15" d="M84.6,129.6l31,8h2l-10-4l6-4h-2l-9,3l-11-5l18-11h-2l-45,17v-12l18-8v-2l-19,7l-4-15h-2v14l-4,17l-18,6
			l20-86l56-41h-3l-7,4v-5l-5,2l-2,5l-34,16l0,0c-17.1,13.3-30.8,30.4-40,50l-12,48h-1c0,3,0,6,0,10c0,23.8,6.2,47.3,18,68l8-49
			L84.6,129.6z"/>
		
			<linearGradient id="SVGID_6_" gradientUnits="userSpaceOnUse" x1="101.6496" y1="141.9377" x2="101.6496" y2="194.4977" gradientTransform="matrix(1 0 0 -1 0 266.6973)">
			<stop  offset="0" style="stop-color:#29427F"/>
			<stop  offset="0.96" style="stop-color:#55C3EA"/>
		</linearGradient>
		<path class="st16" d="M89.6,119.6c0,6.6,5.4,12,12,12s12-5.4,12-12C113.6,113.6,89.6,113.6,89.6,119.6z"/>
		<ellipse class="st15" cx="101.6" cy="118.6" rx="11" ry="3"/>
		<path class="st9" d="M263.6,82.6l-5-3v-11h-1v5l-6-3l0,0l5,4v4l-14-9h-1l5,5h-7l2,2h-3l10-2l16,14l3,55h13l-5-42
			c-3.2-10.1-7.6-19.9-13-29L263.6,82.6z"/>
		<path class="st10" d="M238.6,44.6l3,7l6,14l26,64l-12-10v-5h-1v4l-9-8v2l8,9h-6l-4-7h-1l3,7l-7,3h1l7-2l13,3l17,18v-2
			C281.7,104.7,265.8,69.7,238.6,44.6z"/>
		<path class="st11" d="M244.6,64.6l-5-19l-11-10l6,28l2,6h-6l-3-2l3-5h-1l-3,4l-4-4h-2l5,6v2h-13l10,3l-7,2l-4-2h-1l3,3l-4,3h1l4-2
			l12-2l14,5l13,44l-11-12v-8h-1v4l-8-9v2l7,10h-6l-3-8h-1l2,7l-7,2h8l13,4l15,20l10,45h8c1.6-4.9,3-9.9,4-15l-12-38l12-9v-6l-14,6
			l-21-46l8-8l-5-6L244.6,64.6z"/>
		<path class="st12" d="M252.6,80.6l-9-2h-5l-23-9h-1l9,5l-5,2h-3l-5,2h1l15-5l27,15l20,91c5.7-19.5,7.1-39.9,4-60l-2-8h1l-3-12h-1
			l-4-13c-6.6-14.8-15.7-28.4-27-40L252.6,80.6z"/>
		<path class="st10" d="M252.6,59.6l8,42l-9-3l-2-9v-8h-1l-2,7l-10-4l0,0l9,5v6l-25-10h-1l10,6l-6,2h-6l3,2l-6,2h1l17-4l28,18l10,76
			h1C287,144.5,279.8,96.5,252.6,59.6z"/>
		<path class="st10" d="M221.6,32.6l22,16l-17-15l-3-2L221.6,32.6z"/>
		<path class="st13" d="M271.6,154.6l2-12l4-9h-1l-5,8l-8-8l0,0l7,9l-3,7l-19-22h-1l7,11h-7l-4-3h-1l2,4h13l20,32v4
			c1.7-5.9,3.1-11.9,4-18L271.6,154.6z"/>
		<path class="st10" d="M270.6,190.6v-9l-2-2l-2,7l-12-17l-2,3l9,18l-11-2l-3-14h-2l2,13l-13,2v3h12l18,10l4-9L270.6,190.6z"/>
		<path class="st10" d="M279.6,160.6c0.7-6,1.1-12,1-18c0-17.5-3.4-34.8-10-51v5L279.6,160.6z"/>
		<path class="st12" d="M262.6,109.6l-6-45c-4.8-6.8-10.1-13.2-16-19l6,59l2,10l-10-3l-5-4l5-7h-1l-6,6l-5-7h-3l6,10v2l-19-5v2l15,6
			l-11,3l-6-4h-1l4,5l-7,4h2l6-3h19l20,11l12,72l-15-20v-9l-2-2v7l-12-15v3l9,17l-10-2l-3-13h-2l2,12l-12,2v2h11l19,9l13,22
			c7.2-11.8,12.6-24.6,16-38l-10-51l12-9l-3-13L262.6,109.6z"/>
		<path class="st14" d="M256.6,65.6v5l12,68l-12-5l-7-2l-30-16h-1l12,8l-8,3h-4l-7,2h2l22-4l35,25l3,33
			C285.8,143.1,279.6,100.1,256.6,65.6z"/>
		<path class="st15" d="M255.6,64.6l-23-16l-3-10h2l-3-2h-1l-2-3l-5-3l4,9v7l-6-4h-2l44,42l5,78l-15-7l-2-15l3-12h-2l-5,12l-16-8v2
			l14,9l-3,10l-38-24h-2l15,12l-10,3l-7-3h-2l5,4l-9,2l2,2l28-3l43,35v21C286.6,158.4,283.1,105.7,255.6,64.6z"/>
	</g>
</g>
</svg>
