<svg xmlns="http://www.w3.org/2000/svg" xmlns:xlink="http://www.w3.org/1999/xlink" viewBox="0 0 277.91 275"><defs><style>.cls-1{fill:none;}.cls-2{clip-path:url(#clip-path);}.cls-3{fill:url(#linear-gradient);}.cls-4{fill:#fff;opacity:0;}.cls-5{fill:#fff2ca;opacity:0.25;}.cls-6{fill:#ffe495;opacity:0.5;}.cls-7{fill:#ffd75f;opacity:0.75;}.cls-8{fill:#ffca2a;}.cls-9{fill:url(#linear-gradient-3);}.cls-10{fill:#55c3ea;}.cls-11{fill:#3e84b6;}.cls-12{fill:#48add8;}.cls-13{fill:#356fa2;}.cls-14{fill:#4297c7;}.cls-15{fill:#30588f;}.cls-16{fill:#29427f;}.cls-17{fill:url(#linear-gradient-4);}</style><clipPath id="clip-path"><circle class="cls-1" cx="137.98" cy="137.5" r="137.5"/></clipPath><linearGradient id="linear-gradient" x1="137.5" y1="293.95" x2="137.5" y2="3.09" gradientUnits="userSpaceOnUse"><stop offset="0" stop-color="#29427f"/><stop offset="0.96" stop-color="#55c3ea"/></linearGradient><linearGradient id="linear-gradient-3" x1="129.59" y1="56.45" x2="147.99" y2="303.88" xlink:href="#linear-gradient"/><linearGradient id="linear-gradient-4" x1="96.48" y1="119.11" x2="96.48" y2="66.55" xlink:href="#linear-gradient"/></defs><title>Asset 6</title><g id="Layer_2" data-name="Layer 2"><g id="Layer_1-2" data-name="Layer 1"><g class="cls-2"><path class="cls-3" d="M137.5,275A137.5,137.5,0,1,1,275,137.5,137.5,137.5,0,0,1,137.5,275Z"/><circle class="cls-3" cx="137.5" cy="137.5" r="137.5"/><path class="cls-4" d="M146,63.2a68.14,68.14,0,1,0,68.14,68.14A68.21,68.21,0,0,0,146,63.2Z"/><path class="cls-5" d="M146,70.48a60.85,60.85,0,1,0,60.85,60.85A60.91,60.91,0,0,0,146,70.48Z"/><path class="cls-6" d="M146,77.77a53.56,53.56,0,1,0,53.56,53.56A53.6,53.6,0,0,0,146,77.77Z"/><path class="cls-7" d="M146,85.06a46.28,46.28,0,1,0,46.28,46.28A46.29,46.29,0,0,0,146,85.06Z"/><circle class="cls-8" cx="146" cy="131.33" r="38.99"/><path class="cls-9" d="M137.5,275A137.54,137.54,0,0,0,272.27,164.88C184.42,130.63,90.79,131.34,3.19,167A137.54,137.54,0,0,0,137.5,275Z"/><path class="cls-10" d="M61.36,21.27l2.46-5.49-.73.14-2.48,4.26L57.8,18.25l-.43.81,2.53,2.39-1,3.21q1.14-.8,2.3-1.58Z"/><path class="cls-10" d="M36.39,71.49,20.84,65.93,19.92,70,35.24,81,29.5,137.48l13.24-1L44.93,81.6l15.34-14,9.88,2.23.7-.61-3.29-1.35,1.65-1.61-.74-.3-2.62,1.22-3.44-1.42,5.3-4.6-.64-.48-13.43,9-.77-4.42L58,61.62l.17-.8-5.56,3.07-1.57-5.27-.62.35.83,5.4-.77,6.48-5.2,2.71L48.07,40,64,23l-.85-.46-2,1.53.08-1q-1.16.78-2.3,1.58l-.29.93-9.74,7.08,0-.35A138.35,138.35,0,0,0,37.77,42.84l1.53,1Z"/><path class="cls-11" d="M31.44,96.82l-17-9.46-2.11,3.56,15.34,14.5-21,51.32,15.92,2.64,5.77-22.88,16.89-19.13,13.15-3.31,6.88,1.53,1.17-1.33-7.29-2.85L62,104.13l-1.43.13-3.63,7.42-6.46-.2,8.13-9.21-.44-1.93-9.28,8,.18-4.33-1.22,1.05-1.35,5.34L34.28,121l25.49-64.5L65.92,42.4,79.05,13a137.16,137.16,0,0,0-13.15,7.08l-1.52,3-1.31-1.18q-3.51,2.26-6.86,4.73l3.7,5.45Z"/><path class="cls-12" d="M59.92,64.78,45.17,110.9l-17.51-7.63L26,107l16.4,12.77L26.86,172.58l15.8,1,9.4-45.44,14.61-20.59L79.17,103l6.86.82,1-1.43-7.4-2.08,2.05-7.48-1.39.27-2.82,7.69-6.32.45,7-9.91-.62-1.86-8.26,8.88L69.07,94,68,95.18l-.79,5.41L56.32,112.26l12.54-44,13.45-5.52,11.83,1.93,3.75,2.27,1.41-.58-4-3.22,2.91-2.83L97.39,60l-4.26,2.37L86.26,60l9.63-2.88L95.44,56,83.06,57.7l.31-1.54L87.84,50l-1.66.43-3.51,4.27-3.38-4-.72.87,2.87,4.68-3.37,2.35-6.43,1.08,1.85-6,9-42.23Q77.73,13.54,73.14,16L63.4,55.44,40.88,39.68q-3.64,3.6-7,7.45L44.22,50Z"/><path class="cls-13" d="M39.42,79,35.86,93,12.56,83.32l-2.17,5,22,16.45-19.12,70.1,20.88.93L53.74,81.63l26.49-15,15,4.48,1.21-.65-4.9-2.26L89,67,83.9,64.63,93,59.74,92.09,59l-22.6,9.09L64.41,69l-8.61,2.53L69.52,24.73l2.29-8v0a137.54,137.54,0,0,0-13.14,8.16L43.87,65.93,33,61.09,25.5,57.72a137.55,137.55,0,0,0-8,12.56L22,67.12Z"/><path class="cls-11" d="M7.28,80.27l-2,5.62,3.77,2.42q1.27-3.32,2.71-6.55Z"/><path class="cls-11" d="M15.26,180.52l23-.63,9.12-76.27L75.17,85.06,92,88.77,93.28,88l-5.55-2.09,3-2.15-1.25-.47-4.63,1.53L79,82.6l9.59-6.08-1.06-.7-24,11.74-.89-6.2,9.27-4.77.37-1.11-9.9,3.94L60.18,72l-1.1.45L60,80l-2,9-9.24,3.45,8-46.58L85.94,23.18l-1.42-.7-3.62,2,.66-3.94,4.78-7.5-1.27.15L80.39,19l-4.67-2.87-.82,1.11L79,20.73l-2.61,5.7-17.5,9.27,2.7-12.87A138.1,138.1,0,0,0,45.28,35.52l-.13.48-.29-.1A138.35,138.35,0,0,0,34.34,46.6l7,4L33.58,89,11.78,81.76Q10.34,85,9.07,88.31l21.6,13.87Z"/><path class="cls-14" d="M25.47,105l16.64,2,1.05-1.13-5.65-1.66,2.43-2.94-1.27-.37-4.09,2.45-5.91-1.73,7.91-8.48-1.13-.67L14.92,109.56l-2-7.14,7.86-6.91.14-1.35-8.62,6-3.49-8.4-1,.68,2.3,8.74L10,112,1.9,117.35,1.84,115a138.18,138.18,0,0,0,3.8,61.58l-3-45.92Z"/><path class="cls-11" d="M47.91,99l7.69-24.29L75.1,14.95a137.52,137.52,0,0,0-19,11.74L49.71,43.17,42.6,38Q38.09,42.3,34,47l9.92,11.74L8.29,170.2l-4.86-2.08a136.61,136.61,0,0,0,14.74,37.73Z"/><path class="cls-11" d="M55.61,193.9l11.57,1.32,1.7-2.39-12.49-3.42,3.4-12.48-2.33.46-4.7,12.83L42.1,191l11.78-16.55-1.07-3.09L39,186.21l-.45-7.15L36.68,181l-1.3,9L19.1,207.44q2.53,4.28,5.36,8.35l10.09-14.18Z"/><path class="cls-13" d="M42.9,169.57l19.78-9.72L74.1,160l1.42-2.53L63,155.35l2.08-12.67-2.23.69-3.31,13.14-10.32,1.84,9.85-17.52-1.35-3-12.06,16-1.15-7L42.93,149l-.37,9L26.7,179.12l13-74.58L60.88,93.12l19.79,1.12,6.56,3.08,2.22-1.2-7.16-4.61,4.3-5.16L85.21,86l-6.59,4.64L66.9,88l15.35-6.4-.95-1.74L61.23,84.73l.24-2.59,6.3-10.82-2.65,1-5,7.64-6.26-6-1,1.55,5.53,7.21-5.14,4.45L42.8,90l2-10.27L49.92,31.5A138.36,138.36,0,0,0,33.61,47.43l-5.1,37L14.24,76.52q-2.93,5.91-5.3,12.13l15.45,11.74L8.12,178.8l-2-.63a136.85,136.85,0,0,0,15.73,33.72l.59-5.91Z"/><path class="cls-15" d="M92.69,2.65l-9.55-.06L76.69,14.16A136.68,136.68,0,0,1,90.26,8.33Z"/><path class="cls-15" d="M71.09,129,92,139.16l1.93-.66L87.31,134l-3.45-2.33L76.94,127l14.48-5-1.17-1.25L55,128.63l-7.66.13-13.2,1.63,31.32-65.2L70.77,54,90.26,8.33a136.68,136.68,0,0,0-13.58,5.83L18.08,119.28,3.4,109.6l-.5-.33a137.58,137.58,0,0,0-2.67,20.2l8.2,7.8L1,154.28a136.58,136.58,0,0,0,9.81,36.79l17.92-46.46Z"/><path class="cls-16" d="M79.85,123.88l31.37,8.27,2.46-1.43-10.28-4.35,5.8-3.81-2.31-1-8.83,2.53-10.75-4.55,18.49-10.71-1.93-1.4L57.76,127.7,56.56,116l17.79-8.27.77-2.05-18.91,6.65L52.65,98.13l-2.1.76,1.12,14.32-4.36,16.74-17.63,5.78,18.59-87,56.51-40.4-2.61-1.42-7,3.51.86-4.09q-3.49,1.1-6.89,2.38l-2.54,5L53,29.83l.26-1a138,138,0,0,0-39.68,49L1.36,128.12l-1-.38C.12,131,0,134.22,0,137.5a136.87,136.87,0,0,0,18.19,68.39l7.91-49.23Z"/><path class="cls-17" d="M84.34,113.81a12.14,12.14,0,0,0,24.28,0C108.62,107.87,84.34,107.87,84.34,113.81Z"/><ellipse class="cls-16" cx="96.48" cy="113.09" rx="10.64" ry="2.94"/><path class="cls-10" d="M258.1,77.08l-5.24-2.64L252,68l.76-5.41-.62-.34-1.5,5.29-5.6-3,.18.8,5.21,3.59-.71,4.43-13.54-8.85-.63.48,5.36,4.53L237.49,71l-2.63-1.18-.74.31,1.67,1.59-3.28,1.4.71.6,9.85-2.36,15.53,13.8,2.91,54.8,13.25.87-4.51-39.17a136.63,136.63,0,0,0-12.8-31.35Z"/><path class="cls-11" d="M234,39.6l3.05,6.6,6.34,14,26.34,64.16L257.44,114,256,108.66l-1.23-1,.24,4.32L245.65,104l-.42,1.93,8.25,9.1-6.46.28L243.29,108l-1.43-.11,2.93,7.25-7.25,2.95,1.19,1.31,6.85-1.62,13.19,3.13L275,138.77c0-.42,0-.84,0-1.27A137.07,137.07,0,0,0,234,39.6Z"/><path class="cls-12" d="M234.89,40.44"/><path class="cls-12" d="M277.91,110.26l-1.76-3.71-4.23,1.91q.61,2.84,1.1,5.71Z"/><path class="cls-12" d="M277.87,175.85l-4.77-15.5a136.6,136.6,0,0,1-3.72,16.15Z"/><path class="cls-12" d="M223.44,30.17l6.24,27.4,1.93,6-6.44-1-3.4-2.31,2.8-4.72-.73-.86-3.33,4.06-3.57-4.23-1.66-.41,4.55,6,.33,1.54-12.4-1.49-.44,1.11L217,64.09l-6.84,2.45-4.29-2.31-.8.29L208,67.3l-4,3.28,1.42.56,3.72-2.32L221,66.73l13.52,5.34,13.12,43.85-11-11.53-.86-5.4-1.1-1.15-.19,4.3-8.38-8.77-.6,1.87,7.16,9.82-6.33-.37L223.37,97,222,96.79l2.15,7.46-7.37,2.18,1,1.42,6.85-.91,12.56,4.42,14.88,20.4,10,45.31,7.29-.56a136.6,136.6,0,0,0,3.72-16.15l-11.41-37.1L273,114.18q-.49-2.88-1.1-5.71l-13.17,6L243.39,68.5l8.14-7.85q-2.25-3.33-4.69-6.51l-7.05,5.08-4.89-18.77"/><path class="cls-13" d="M247.61,75.23,239,72.82,233.86,72l-22.72-8.79-.9.72,9.16,4.77-5.09,2.43-2.53,1.21-4.87,2.33,1.22.64,15-4.67,26.68,14.67,20,89.9a138.44,138.44,0,0,0,2.91-62.86l-1.21-4.21.31-.24q-1.32-6-3.16-11.85l-.81.35-2.73-10.2a137.58,137.58,0,0,0-27.23-42.64Z"/><path class="cls-11" d="M220,27.46l-1.73-.93-1.41.71,19.85,15"/><path class="cls-11" d="M247.21,54.61,254.89,96l-9.28-3.33-2.08-9,.8-7.59-1.1-.43-2.09,7.47-9.95-3.81.38,1.1,9.33,4.65-.81,6.22L215.89,79.9l-1,.72,9.67,6-5.77,2.26-4.65-1.47-1.24.49,3,2.11-5.52,2.16,1.29.79L228.41,89l28.08,18.19,10.13,76.14h.55a137.66,137.66,0,0,0-20-128.7Z"/><path class="cls-14" d="M266.93,149.38l1.83-11.58,4.07-8.94-.9-.91-5.28,8.35-8.12-8-.1,1.47,7.14,8.84-3.48,7.27-18.81-22.15-1.34.51,6.91,10.53-6.64.77-3.93-3.38-1.43.17,2.06,3.59-6.35.73.92,1.4,18.17,1,19.41,31.24a136.88,136.88,0,0,0,2.72-14.42Z"/><path class="cls-11" d="M274.09,153.3a138.92,138.92,0,0,0,.91-15.8,137.16,137.16,0,0,0-9-49.11l.44,2.74Z"/><path class="cls-11" d="M265.46,185.06l0-9.31L264,173.51l-1.51,7.17-11.66-17.05-1.52,3,9.33,18.49-10.54-2.37L245.27,169l-2.26-.81,1.55,13.13-13,1.62,1.34,2.66,11.76.37,17.48,9.58q2.17-4.66,4-9.5Z"/><path class="cls-13" d="M257.2,104.06l-6-43.93a138.19,138.19,0,0,0-15.8-19.2l6.19,58.64,1.91,9.86-10-2.78-4.94-4.28,5.31-6.92-1-1.49-6,5.78L222,92.42l-2.55-1,6,10.39.23,2.49-19.28-4.68-.91,1.67,14.74,6.16L209.07,110l-6.33-4.46-1.32.3,4.13,5-6.88,4.42,2.13,1.15,6.3-3,19-1.07,20.33,11L258.89,195l-15.22-20.27-.35-8.68-1.52-2-1.11,6.74-11.57-15.41-1.3,2.83,9.45,16.84-9.92-1.78-3.17-12.62-2.14-.66,2,12.17-12,2,1.36,2.43,11-.14,19,9.34,12.34,22a136.64,136.64,0,0,0,15.72-38.91l-10.24-49.51,11.26-8.54a136.55,136.55,0,0,0-3.33-13.36Z"/><path class="cls-15" d="M251.48,60.56l.65,3.74L264.42,132l-11.69-4.82-7-2.05L215.42,109l-1.38.86,12,8.21-7.53,2.55-3.75,1.27-7.21,2.44,1.6,1.09,21.74-4,34.88,25L269,177.88A137.78,137.78,0,0,0,251.48,60.56Z"/><path class="cls-16" d="M223.18,30"/><path class="cls-16" d="M215.57,20.06l-2.06-.46,2.5,5q2.43,1.69,4.78,3.49Z"/><path class="cls-16" d="M223.18,30l-.9.43L220.8,28.1"/><path class="cls-16" d="M220.06,32.75l.41,6.59-5.6-3.94-2.45.9,44,42.35,5.07,78-14.6-7.28-1.66-15.11L248,122l-1.73-.93-4.9,11.86-15.59-8.2.41,1.88L240.62,136l-2.55,10.05-37.51-23.5-1.86,1,14.71,11.67-9.93,2.58-7.35-3.33-2.14.56,4.56,4.05-9.5,2.47,2,1.55L219.35,140l42.56,35.37.27,20.19A137.62,137.62,0,0,0,250,58.45L227.5,43.3l-3.31-9.83"/></g></g></g></svg>