<svg xmlns="http://www.w3.org/2000/svg" xmlns:xlink="http://www.w3.org/1999/xlink" viewBox="0 0 158.98 275.63"><defs><style>.cls-1{fill:none;}.cls-2{fill:#eccfa9;}.cls-3{fill:#404041;}.cls-4{fill:#ffca2a;}.cls-5{fill:#f6d5a9;}.cls-6{fill:#f1f1f2;}.cls-7{fill:#e6e7e8;}.cls-8{fill:#324e9e;}.cls-9{fill:#808184;}.cls-10{fill:#e4e5e5;}.cls-11{fill:#d0d2d3;}.cls-12{fill:#ffdeaf;}.cls-13{fill:#231f20;}.cls-14{fill:#6d6e70;}.cls-15{fill:#f9c940;}.cls-16{clip-path:url(#clip-path);}.cls-17{fill:#f5bd3e;}.cls-18{fill:#fff;}</style><clipPath id="clip-path"><path class="cls-1" d="M127.33,40c0,.06-76.77,2-76.78,1.81C50,19.26,66.77.56,88,.06S126.8,17.45,127.33,40Z"/></clipPath></defs><title>Asset 9</title><g id="Layer_2" data-name="Layer 2"><g id="FAQ"><path class="cls-2" d="M130.89,222l-10.13-1.58a5.58,5.58,0,0,0-6.41,5l-.39,4a5.58,5.58,0,0,0,4.39,6l9.6,2.37a5.88,5.88,0,0,0,6.74-4.76l.82-4.49A5.58,5.58,0,0,0,130.89,222Z"/><path class="cls-2" d="M134.25,223.76c-.24-.26-.55-.37-.81-.13L130.71,227a.64.64,0,0,0,0,.91l2.47,2.64a3.8,3.8,0,0,0,5.36.18l.45-.42a.64.64,0,0,0,0-.91Z"/><rect class="cls-3" x="148.29" y="228.4" width="4.34" height="9.48" transform="translate(-103.1 345.85) rotate(-81.13)"/><path class="cls-3" d="M157.51,232l-3.05-.48a1.74,1.74,0,0,0-2,1.45l-1.63,10.47a4.53,4.53,0,0,0,3.78,5.18l.3,0a1.74,1.74,0,0,0,2-1.45L159,234A1.74,1.74,0,0,0,157.51,232Z"/><path class="cls-4" d="M96.88,225.28a2.65,2.65,0,0,0,2.21,3L146,235.64l.82-5.24-46.94-7.33A2.65,2.65,0,0,0,96.88,225.28Z"/><path class="cls-4" d="M149,230.74l-3.12-.49A1.62,1.62,0,0,0,144,231.6L142.4,242a4.77,4.77,0,0,0,4,5.45,1.62,1.62,0,0,0,1.85-1.35l2.12-13.56A1.62,1.62,0,0,0,149,230.74Z"/><rect class="cls-2" x="119.44" y="192.53" width="11.62" height="32.38"/><path class="cls-5" d="M132.2,228.12c-3.86-.55-9.92-1.49-13.8-2.11a3.54,3.54,0,0,0-4.07,3.15l0,.26a5.58,5.58,0,0,0,4.39,6l9.6,2.37A5.88,5.88,0,0,0,135,233l.14-.77A3.54,3.54,0,0,0,132.2,228.12Z"/><rect class="cls-6" x="115.48" y="189.3" width="21.03" height="11.88" rx="3.67" ry="3.67"/><path class="cls-7" d="M125.5,173.12c.19-13.56-.68-15.23-2.57-28.65-1.05-7.45-5.55-29.58-5.55-29.58L120,201.35l6.34-.1S125.45,176.48,125.5,173.12Z"/><path class="cls-8" d="M122.93,205.08v-.66l-67.34-.89-.79,23.86a20.46,20.46,0,0,0,5,13.4,3.84,3.84,0,0,1,.93,2.5v32.34H86V251.8a3.86,3.86,0,0,1,3.86-3.86h4.25a3.86,3.86,0,0,1,3.86,3.86v23.83h25.26V205.08Z"/><path class="cls-6" d="M121.94,112.45c-1.65-6-10.12-7.83-16.31-7.43L94,105l17.25,48.2a95.26,95.26,0,0,1,5.16,30.92l-.58,8.73h17.83v-23.2C133.29,150.48,121.94,112.45,121.94,112.45Z"/><path class="cls-6" d="M122.09,113.85c-.22-3.86-2.89-5-7.48-7.48-6.34-3.47-23.11-5.48-23.11-5.48l-30.93,3.76c-4.36,0-7.89,3.25-7.89,7.26v85.85c0,4,3.54,7.26,7.9,7.26h58.54c4.53,0,3.65-2.78,3.41-6.93Z"/><path class="cls-8" d="M116.69,106.67,110,104.29l1.8,28.44a3.46,3.46,0,0,1-3.46,3.55H74.84a3.46,3.46,0,0,1-3.44-3.07L66.87,103.8l-8.17.69,3.84,30.78a24,24,0,0,1,.17,3l-.58,69,61.1-1.84L120,143.33Z"/><path class="cls-4" d="M110.37,157.16,95.74,146a2.72,2.72,0,0,0-3.3,0L77.81,157.16a2.72,2.72,0,0,0-1.07,2.16v17.38a2.72,2.72,0,0,0,2.72,2.72H87a2.72,2.72,0,0,1,2.72,2.72v12.41a2.72,2.72,0,0,0,4.65,1.92l16.26-16.26a2.72,2.72,0,0,0,.8-1.92v-19A2.72,2.72,0,0,0,110.37,157.16Z"/><path class="cls-9" d="M85,190.47l-14.5-1.19-2.83,56.5,12.82,1a4.27,4.27,0,0,0,4.59-3.91l3.82-47.83A4.27,4.27,0,0,0,85,190.47Z"/><rect class="cls-10" x="19.21" y="170.22" width="56.52" height="91.38" rx="4.27" ry="4.27" transform="translate(-171.54 246.02) rotate(-85.43)"/><path class="cls-11" d="M49.39,204.73a1.25,1.25,0,0,0-1.51-.12l-7.09,4.57a1.25,1.25,0,0,0-.57.95l-.63,7.94a1.25,1.25,0,0,0,1.14,1.34l3.45.28A1.25,1.25,0,0,1,45.33,221l-.45,5.67a1.25,1.25,0,0,0,2.05,1l8-6.83a1.25,1.25,0,0,0,.43-.85l.69-8.66a1.25,1.25,0,0,0-.41-1Z"/><path class="cls-12" d="M48,231.76c-.23-.27-.54-.39-.81-.16l-2.83,3.27a.64.64,0,0,0-.06.91l2.38,2.72a3.8,3.8,0,0,0,5.36.35l.46-.4a.64.64,0,0,0,.06-.91Z"/><path class="cls-2" d="M47.3,241.8l-17.23-1.28c-.62,0-1.13-.87-1.18-.25l-.12,2.37a1.9,1.9,0,0,0,1.66,1.93,73.9,73.9,0,0,0,15.88,1.18,2,2,0,0,0,2-1.68l.08-1A1.14,1.14,0,0,0,47.3,241.8Z"/><path class="cls-12" d="M43.54,229H33.76a5.47,5.47,0,0,0-5.31,5.89l.37,5.53c.15,2.83,2.16,3.59,4.87,3.74l9.39.86c3,.17,5.43,0,5.51-3.15l.25-7.15A5.46,5.46,0,0,0,43.54,229Z"/><rect class="cls-12" x="32.14" y="210.43" width="11.62" height="20.07"/><rect class="cls-6" x="27.05" y="198.48" width="21.03" height="11.88" rx="3.71" ry="3.71"/><path class="cls-6" d="M46.87,114.44c-3.31,11.34-15.11,44.79-15.11,44.79a51,51,0,0,0-2.66,15.64l-.46,30.73H46.47l-.12-15.69a108.77,108.77,0,0,1,5.89-35.31l6.9-38.14-.3-11.59A14.33,14.33,0,0,0,46.87,114.44Z"/><path class="cls-5" d="M91.95,80.38h-3.6A9.67,9.67,0,0,0,78.71,90v12.14a10.48,10.48,0,0,0,10.45,10.45h2.79a9.67,9.67,0,0,0,9.64-9.64V90A9.67,9.67,0,0,0,91.95,80.38Z"/><path class="cls-12" d="M110.88,34H77.51A10.86,10.86,0,0,0,66.66,44.86v24A27.73,27.73,0,0,0,94.38,96.58h0c15.31,0,26.89-12.22,26.89-27.54l.84-23.81A11.23,11.23,0,0,0,110.88,34Z"/><path class="cls-13" d="M113.52,60a1.15,1.15,0,0,0-1.14,1.14v4.19a1.14,1.14,0,0,0,2.29,0V61.13A1.15,1.15,0,0,0,113.52,60Z"/><path class="cls-13" d="M86.61,59.62a1.15,1.15,0,0,0-1.14,1.14V65a1.14,1.14,0,0,0,2.29,0V60.77A1.15,1.15,0,0,0,86.61,59.62Z"/><path class="cls-13" d="M118.28,53h-8.86a.86.86,0,0,0,0,1.72h8.86a.86.86,0,1,0,0-1.72Z"/><circle class="cls-12" cx="63.57" cy="66.53" r="6.62"/><path class="cls-13" d="M90.38,52.83H81.52a.86.86,0,0,0,0,1.72h8.86a.86.86,0,0,0,0-1.72Z"/><path class="cls-13" d="M115.59,28.74c-5-2.75-10.72-3.66-16.37-4.3-8.3-.94-16.84-1.38-24.88.89S63.24,23,58,33.91c-6.87,14.39-.79,30.83-.83,30.8s2-5.82,7.79-4.59c2.69.57,1.27,5.89,2.34,6.83s4.09.3,4.23-1.68c.21-3-3.77-13.93-1.26-17.89C80,32,115,36.83,117.28,38c3.59,1.87,4.43,8.25,4.62,12,1.72-.79,1.07-6.21.92-9.51C122.58,34.86,120.56,31.49,115.59,28.74Z"/><polygon class="cls-14" points="55.05 42.12 54.31 48.75 90.95 38.16 89.24 32.18 55.05 42.12"/><ellipse class="cls-15" cx="92.88" cy="40.02" rx="42.31" ry="3.62" transform="translate(-1.42 3.47) rotate(-2.12)"/><path class="cls-15" d="M88,0c-21.2.5-38,19.2-37.43,41.76,0,.22,76.78-1.74,76.78-1.81C126.84,17.4,109.23-.49,88,0Z"/><g class="cls-16"><path class="cls-17" d="M69.92,7.19H35.25a8.44,8.44,0,0,0-8.44,8.44v15.2a8.44,8.44,0,0,0,8.44,8.44H85.12a8.44,8.44,0,0,0,8.44-8.44h0A23.65,23.65,0,0,0,69.92,7.19Z"/></g><path class="cls-18" d="M105.09,77.37H93.46A1.64,1.64,0,0,0,91.83,79v.82a6.81,6.81,0,0,0,6.79,6.79h1.33a6.81,6.81,0,0,0,6.79-6.79V79A1.64,1.64,0,0,0,105.09,77.37Z"/></g></g></svg>