<?xml version="1.0" encoding="utf-8"?>
<!-- Generator: Adobe Illustrator 18.0.0, SVG Export Plug-In . SVG Version: 6.00 Build 0)  -->
<!DOCTYPE svg PUBLIC "-//W3C//DTD SVG 1.1//EN" "http://www.w3.org/Graphics/SVG/1.1/DTD/svg11.dtd">
<svg version="1.1" id="Layer_1" xmlns="http://www.w3.org/2000/svg" xmlns:xlink="http://www.w3.org/1999/xlink" x="0px" y="0px"
	 viewBox="0 0 200 200" enable-background="new 0 0 200 200" xml:space="preserve">
<path fill="#CCCCCC" d="M162.2,82h-1.1V60.5c0-33.8-27.4-61.1-61.1-61.1h0c-33.8,0-61.1,27.4-61.1,61.1V82h-1.1
	c-9.1,0-16.6,7.5-16.6,16.6V183c0,9.1,7.5,16.6,16.6,16.6h124.5c9.1,0,16.6-7.5,16.6-16.6V98.6C178.9,89.4,171.4,82,162.2,82z
	 M68.4,60.5C68.4,43.1,82.6,29,100,29h0c17.4,0,31.6,14.1,31.6,31.6V82H68.4V60.5z"/>
</svg>
