<?xml version="1.0" encoding="utf-8"?>
<!-- Generator: Adobe Illustrator 18.0.0, SVG Export Plug-In . SVG Version: 6.00 Build 0)  -->
<!DOCTYPE svg PUBLIC "-//W3C//DTD SVG 1.1//EN" "http://www.w3.org/Graphics/SVG/1.1/DTD/svg11.dtd">
<svg version="1.1" id="Layer_1" xmlns="http://www.w3.org/2000/svg" xmlns:xlink="http://www.w3.org/1999/xlink" x="0px" y="0px"
	 viewBox="0 0 140 60" enable-background="new 0 0 140 60" xml:space="preserve">
<g>
	<g>
		<path fill="#FFC929" d="M138.8,17.9l0,19.9c0,0.7-0.3,1.5-0.8,2l-17.1,16.8c-1.8,1.8-4.9,0.5-4.9-2l0-12.8c0-1.6-1.3-2.8-2.9-2.8
			l-8.5,0c-1.6,0-2.9-1.3-2.9-2.8l0-18.2c0-0.4,0.1-0.8,0.3-1.2c0.2-0.4,0.5-0.8,0.9-1.1l15.7-11.9c1-0.8,2.5-0.8,3.5,0l15.7,11.9
			C138.4,16.2,138.8,17,138.8,17.9"/>
	</g>
	<g>
		<path fill="#B2B2B2" d="M22.9,32.7C22.9,32.7,22.9,32.7,22.9,32.7l0.4-0.1c0.1,0,0.1,0,0.1,0.1l0,4.7c0,0.2,0,0.3,0.1,0.3
			c0.1,0.1,0.2,0.1,0.3,0.1l0.4,0c0.2,0,0.3,0.1,0.3,0.2c0,0.1,0,0.2-0.1,0.2c-0.1,0-0.1,0-0.3,0l-0.3,0c-0.4,0-0.6-0.1-0.8-0.2
			c-0.2-0.1-0.2-0.4-0.2-0.7L22.9,32.7z"/>
		<path fill="#B2B2B2" d="M24.2,38.3c-0.1,0-0.2,0-0.2-0.1c0,0-0.1-0.1-0.1-0.2c0-0.1,0-0.2,0-0.2c0,0,0.1,0,0.2,0l0.9,0
			c0.1,0,0.2,0,0.3,0c0.1,0,0.1,0.1,0.1,0.2c0,0.1,0,0.2-0.1,0.2c-0.1,0-0.1,0.1-0.3,0.1L24.2,38.3z"/>
		<path fill="#B2B2B2" d="M25,38.3c-0.1,0-0.2,0-0.2-0.1s-0.1-0.1-0.1-0.2c0-0.1,0-0.2,0-0.2c0,0,0.1,0,0.2,0l0.9,0
			c0.1,0,0.2,0,0.3,0c0.1,0,0.1,0.1,0.1,0.2c0,0.1,0,0.2-0.1,0.2c-0.1,0-0.1,0.1-0.3,0.1L25,38.3z"/>
		<path fill="#B2B2B2" d="M25.8,38.3c-0.1,0-0.2,0-0.2-0.1c0,0-0.1-0.1-0.1-0.2c0-0.1,0-0.2,0-0.2c0,0,0.1,0,0.2,0l0.9,0
			c0.1,0,0.2,0,0.3,0c0.1,0,0.1,0.1,0.1,0.2c0,0.1,0,0.2-0.1,0.2c-0.1,0-0.1,0.1-0.3,0.1L25.8,38.3z"/>
		<path fill="#B2B2B2" d="M26.7,38.3c-0.1,0-0.2,0-0.2-0.1c0,0-0.1-0.1-0.1-0.2c0-0.1,0-0.2,0-0.2c0,0,0.1,0,0.2,0l0.9,0
			c0.1,0,0.2,0,0.3,0c0.1,0,0.1,0.1,0.1,0.2c0,0.1,0,0.2-0.1,0.2c-0.1,0-0.1,0.1-0.3,0.1L26.7,38.3z"/>
		<path fill="#B2B2B2" d="M28.6,34.2C28.6,34.2,28.5,34.1,28.6,34.2l-0.1-0.6c0-0.1,0-0.1,0.1-0.1l0.3,0c0.1,0,0.1,0,0.1,0.1l0,0.5
			c0,0.1,0,0.1-0.1,0.1L28.6,34.2z M27.5,38.3c-0.1,0-0.2,0-0.3,0s-0.1-0.1-0.1-0.2c0-0.1,0-0.2,0.1-0.2s0.1,0,0.3,0l0.6,0
			c0.1,0,0.3,0,0.3-0.1c0.1-0.1,0.1-0.2,0.1-0.3l0-2.4c0-0.1,0-0.1,0.1-0.1l0.3,0c0.1,0,0.1,0,0.1,0.1l0,2.2c0,0.2,0,0.3,0,0.5
			c0,0.1-0.1,0.2-0.2,0.3c-0.1,0.1-0.2,0.2-0.3,0.2c-0.1,0-0.3,0.1-0.5,0.1L27.5,38.3z"/>
		<path fill="#B2B2B2" d="M33.3,37.2c0,0.2,0.1,0.4,0.2,0.5c0.1,0.1,0.3,0.2,0.6,0.2l0.1,0c0.1,0,0.2,0,0.3,0.1
			c0.1,0,0.1,0.1,0.1,0.2c0,0.1,0,0.2-0.1,0.2c-0.1,0-0.1,0-0.3,0c-0.2,0-0.4,0-0.6-0.1c-0.2-0.1-0.3-0.2-0.4-0.4
			c-0.1,0.2-0.2,0.3-0.4,0.4c-0.2,0.1-0.4,0.1-0.6,0.1l-1.9,0c-0.1,0-0.1,0-0.1-0.1l0-0.3c0-0.1,0-0.1,0.1-0.1l1.7,0
			c0.2,0,0.3,0,0.4,0c0.1,0,0.2-0.1,0.2-0.1c0.1-0.1,0.1-0.2,0.1-0.3c0-0.1,0-0.2,0-0.4l0-0.8c0-0.3-0.1-0.5-0.3-0.7
			c-0.2-0.2-0.4-0.2-0.8-0.2l-1,0c-0.1,0-0.1,0-0.1-0.1l0-0.3c0-0.1,0-0.1,0.1-0.1l1.1,0c0.2,0,0.4,0,0.6,0.1
			c0.2,0.1,0.3,0.1,0.5,0.3c0.1,0.1,0.2,0.3,0.3,0.4c0.1,0.2,0.1,0.4,0.1,0.6L33.3,37.2z"/>
		<path fill="#B2B2B2" d="M34.2,38.4c-0.1,0-0.2,0-0.2-0.1c0,0-0.1-0.1-0.1-0.2c0-0.1,0-0.2,0-0.2c0,0,0.1,0,0.2,0l0.9,0
			c0.1,0,0.2,0,0.3,0c0.1,0,0.1,0.1,0.1,0.2c0,0.1,0,0.2-0.1,0.2c-0.1,0-0.1,0.1-0.3,0.1L34.2,38.4z"/>
		<path fill="#B2B2B2" d="M35,38.4c-0.1,0-0.2,0-0.2-0.1c0,0-0.1-0.1-0.1-0.2c0-0.1,0-0.2,0-0.2c0,0,0.1,0,0.2,0l0.9,0
			c0.1,0,0.2,0,0.3,0c0.1,0,0.1,0.1,0.1,0.2c0,0.1,0,0.2-0.1,0.2c-0.1,0-0.1,0.1-0.3,0.1L35,38.4z"/>
		<path fill="#B2B2B2" d="M35.8,38.4c-0.1,0-0.2,0-0.2-0.1c0,0-0.1-0.1-0.1-0.2c0-0.1,0-0.2,0-0.2c0,0,0.1,0,0.2,0l0.9,0
			c0.1,0,0.2,0,0.3,0c0.1,0,0.1,0.1,0.1,0.2c0,0.1,0,0.2-0.1,0.2c-0.1,0-0.1,0.1-0.3,0.1L35.8,38.4z"/>
		<path fill="#B2B2B2" d="M37.8,34.2C37.7,34.2,37.7,34.1,37.8,34.2l-0.1-0.6c0-0.1,0-0.1,0.1-0.1l0.3,0c0.1,0,0.1,0,0.1,0.1l0,0.5
			c0,0.1,0,0.1-0.1,0.1L37.8,34.2z M38.2,37.3c0,0.2,0.1,0.4,0.2,0.5c0.1,0.1,0.3,0.2,0.6,0.2l0.1,0c0.1,0,0.2,0,0.3,0
			s0.1,0.1,0.1,0.2c0,0.1,0,0.2-0.1,0.2c-0.1,0-0.1,0.1-0.3,0.1c-0.2,0-0.4,0-0.6-0.1c-0.2-0.1-0.3-0.2-0.4-0.4
			c-0.1,0.1-0.2,0.2-0.3,0.3c-0.1,0.1-0.3,0.1-0.5,0.1l-0.7,0c-0.1,0-0.2,0-0.3,0c-0.1,0-0.1-0.1-0.1-0.2c0-0.1,0-0.2,0.1-0.2
			s0.1-0.1,0.3,0l0.6,0c0.1,0,0.2,0,0.3,0c0.1,0,0.1-0.1,0.1-0.1c0-0.1,0-0.1,0.1-0.2c0-0.1,0-0.2,0-0.3l0-2.1c0-0.1,0-0.1,0.1-0.1
			l0.3,0c0.1,0,0.1,0,0.1,0.1L38.2,37.3z"/>
		<path fill="#B2B2B2" d="M39.1,38.4c-0.1,0-0.2,0-0.2-0.1c0,0-0.1-0.1-0.1-0.2c0-0.1,0-0.2,0-0.2c0,0,0.1,0,0.2,0l0.9,0
			c0.1,0,0.2,0,0.3,0c0.1,0,0.1,0.1,0.1,0.2c0,0.1,0,0.2-0.1,0.2c-0.1,0-0.1,0.1-0.3,0.1L39.1,38.4z"/>
		<path fill="#B2B2B2" d="M39.9,38.4c-0.1,0-0.2,0-0.2-0.1s-0.1-0.1-0.1-0.2c0-0.1,0-0.2,0-0.2c0,0,0.1,0,0.2,0l0.9,0
			c0.1,0,0.2,0,0.3,0c0.1,0,0.1,0.1,0.1,0.2c0,0.1,0,0.2-0.1,0.2c-0.1,0-0.1,0.1-0.3,0.1L39.9,38.4z"/>
		<path fill="#B2B2B2" d="M41.3,36.5c0-0.1,0-0.3,0.1-0.5c0-0.2,0.1-0.4,0.2-0.6c0.1-0.2,0.3-0.3,0.5-0.5c0.2-0.1,0.5-0.2,0.9-0.2
			c0.3,0,0.6,0.1,0.8,0.2c0.2,0.1,0.4,0.3,0.6,0.5c0,0.1,0,0.1,0,0.1l-0.3,0.2c0,0-0.1,0-0.1,0c-0.3-0.3-0.6-0.5-1-0.5
			c-0.2,0-0.4,0-0.6,0.1s-0.3,0.2-0.4,0.3c-0.1,0.1-0.2,0.2-0.2,0.4c0,0.1-0.1,0.3-0.1,0.5c0,0.2,0,0.5,0.1,0.6
			c0.1,0.2,0.2,0.3,0.3,0.4c0.1,0.1,0.2,0.2,0.3,0.2c0.1,0.1,0.2,0.1,0.2,0.1l1.8,0c0.1,0,0.1,0,0.1,0.1l0,0.3c0,0.1,0,0.1-0.1,0.1
			l-3.9,0c-0.1,0-0.2,0-0.3,0s-0.1-0.1-0.1-0.2c0-0.1,0-0.2,0.1-0.2c0.1,0,0.1,0,0.3,0l1.1,0c-0.2-0.1-0.3-0.3-0.4-0.5
			C41.4,37.1,41.3,36.9,41.3,36.5"/>
		<path fill="#B2B2B2" d="M50.6,34.8l0.2,0c0.2,0,0.3,0,0.3,0.1c0.1,0.1,0.1,0.2,0.1,0.3l0,0.4c0,0.2,0,0.3-0.1,0.4
			c-0.1,0.1-0.2,0.1-0.4,0.1l-0.9,0c-0.1,0-0.1,0-0.1-0.1l0-0.2c0-0.1,0-0.1,0.1-0.1l0.9,0c0.1,0,0.1,0,0.1,0c0,0,0-0.1,0-0.1l0-0.2
			c0-0.1,0-0.2-0.1-0.2c0,0-0.1,0-0.2,0l-0.5,0c-0.1,0-0.1,0-0.1-0.1l0-0.1c0,0,0-0.1,0-0.1l0.7-0.8c0-0.1,0.1-0.1,0.1,0l0.1,0.1
			c0,0,0,0.1,0,0.1L50.6,34.8z M53.5,37.3c0,0.2,0.1,0.3,0.2,0.4c0.2,0.1,0.4,0.1,0.6,0.1l0.1,0c0.1,0,0.2,0,0.3,0
			c0.1,0,0.1,0.1,0.1,0.2c0,0.1,0,0.2-0.1,0.2c-0.1,0-0.1,0-0.3,0c-0.2,0-0.4,0-0.6-0.1c-0.2-0.1-0.3-0.2-0.4-0.3
			c-0.1,0.3-0.4,0.4-0.8,0.4l-4.1,0c-0.4,0-0.6-0.1-0.8-0.2c-0.2-0.1-0.2-0.4-0.2-0.7l0-1.8c0-0.1,0-0.1,0.1-0.1l0.3,0
			c0.1,0,0.1,0,0.1,0.1l0,1.8c0,0.2,0,0.3,0.1,0.3c0.1,0.1,0.2,0.1,0.3,0.1l4.2,0c0.1,0,0.3,0,0.3-0.1c0.1-0.1,0.1-0.2,0.1-0.3
			l0-4.7c0-0.1,0-0.1,0.1-0.1l0.3,0c0.1,0,0.1,0,0.1,0.1L53.5,37.3z"/>
		<path fill="#B2B2B2" d="M54.4,38.4c-0.1,0-0.2,0-0.2-0.1c0,0-0.1-0.1-0.1-0.2c0-0.1,0-0.2,0-0.2c0,0,0.1,0,0.2,0l0.9,0
			c0.1,0,0.2,0,0.3,0c0.1,0,0.1,0.1,0.1,0.2c0,0.1,0,0.2-0.1,0.2c-0.1,0-0.1,0.1-0.3,0.1L54.4,38.4z"/>
		<path fill="#B2B2B2" d="M55.2,38.4c-0.1,0-0.2,0-0.2-0.1c0,0-0.1-0.1-0.1-0.2c0-0.1,0-0.2,0-0.2c0,0,0.1,0,0.2,0l0.9,0
			c0.1,0,0.2,0,0.3,0c0.1,0,0.1,0.1,0.1,0.2c0,0.1,0,0.2-0.1,0.2c-0.1,0-0.1,0.1-0.3,0.1L55.2,38.4z"/>
		<path fill="#B2B2B2" d="M56,38.4c-0.1,0-0.2,0-0.2-0.1c0,0-0.1-0.1-0.1-0.2c0-0.1,0-0.2,0-0.2c0,0,0.1,0,0.2,0l0.9,0
			c0.1,0,0.2,0,0.3,0c0.1,0,0.1,0.1,0.1,0.2c0,0.1,0,0.2-0.1,0.2c-0.1,0-0.1,0.1-0.3,0.1L56,38.4z"/>
		<path fill="#B2B2B2" d="M58,34.2C57.9,34.2,57.9,34.2,58,34.2l-0.1-0.6c0-0.1,0-0.1,0.1-0.1l0.3,0c0.1,0,0.1,0,0.1,0.1l0,0.5
			c0,0.1,0,0.1-0.1,0.1L58,34.2z M56.9,38.4c-0.1,0-0.2,0-0.3,0c-0.1,0-0.1-0.1-0.1-0.2c0-0.1,0-0.2,0.1-0.2c0.1,0,0.1,0,0.3,0
			l0.6,0c0.1,0,0.3,0,0.3-0.1c0.1-0.1,0.1-0.2,0.1-0.3l0-2.4c0-0.1,0-0.1,0.1-0.1l0.3,0c0.1,0,0.1,0,0.1,0.1l0,2.2
			c0,0.2,0,0.3,0,0.5c0,0.1-0.1,0.2-0.2,0.3c-0.1,0.1-0.2,0.2-0.3,0.2c-0.1,0-0.3,0.1-0.5,0.1L56.9,38.4z"/>
		<path fill="#B2B2B2" d="M59.7,32.8C59.7,32.7,59.7,32.7,59.7,32.8l0.4-0.1c0.1,0,0.1,0,0.1,0.1l0,4.7c0,0.2,0,0.3,0.1,0.3
			c0.1,0.1,0.2,0.1,0.3,0.1l0.4,0c0.2,0,0.3,0.1,0.3,0.2c0,0.1,0,0.2-0.1,0.2c-0.1,0-0.1,0-0.3,0l-0.3,0c-0.4,0-0.6-0.1-0.8-0.2
			c-0.2-0.1-0.2-0.4-0.2-0.7L59.7,32.8z"/>
		<path fill="#B2B2B2" d="M61,38.4c-0.1,0-0.2,0-0.2-0.1s-0.1-0.1-0.1-0.2c0-0.1,0-0.2,0-0.2c0,0,0.1,0,0.2,0l0.9,0
			c0.1,0,0.2,0,0.3,0c0.1,0,0.1,0.1,0.1,0.2c0,0.1,0,0.2-0.1,0.2c-0.1,0-0.1,0.1-0.3,0.1L61,38.4z"/>
		<path fill="#B2B2B2" d="M61.8,38.4c-0.1,0-0.2,0-0.2-0.1c0,0-0.1-0.1-0.1-0.2c0-0.1,0-0.2,0-0.2c0,0,0.1,0,0.2,0l0.9,0
			c0.1,0,0.2,0,0.3,0C63,38,63,38,63,38.1c0,0.1,0,0.2-0.1,0.2c-0.1,0-0.1,0.1-0.3,0.1L61.8,38.4z"/>
		<path fill="#B2B2B2" d="M64.9,35c0.2,0,0.4,0,0.6,0.1c0.2,0.1,0.3,0.1,0.5,0.3c0.1,0.1,0.2,0.3,0.3,0.4c0.1,0.2,0.1,0.4,0.1,0.6
			l0,0.8c0,0.2,0.1,0.4,0.2,0.5c0.2,0.1,0.4,0.2,0.6,0.2l0.1,0c0.1,0,0.2,0,0.3,0.1c0.1,0,0.1,0.1,0.1,0.2c0,0.1,0,0.2-0.1,0.2
			c-0.1,0-0.1,0-0.3,0c-0.2,0-0.5,0-0.6-0.1s-0.3-0.2-0.4-0.4c-0.1,0.2-0.2,0.3-0.4,0.4c-0.2,0.1-0.4,0.1-0.6,0.1l-2.6,0
			c-0.2,0-0.3-0.1-0.3-0.2c0-0.1,0-0.2,0.1-0.2c0.1,0,0.1,0,0.3,0l2.4,0c0.2,0,0.3,0,0.4,0c0.1,0,0.2-0.1,0.2-0.1
			c0.1-0.1,0.1-0.2,0.1-0.3c0-0.1,0-0.2,0-0.4l0-0.7c0-0.3-0.1-0.5-0.3-0.7c-0.2-0.2-0.4-0.2-0.8-0.2l-1.4,0c-0.1,0-0.1,0-0.1-0.1
			l0-0.3c0-0.1,0-0.1,0-0.1l1.9-2.2c0,0,0.1-0.1,0.1,0l0.2,0.2c0.1,0,0.1,0.1,0,0.1L63.9,35L64.9,35z"/>
		<path fill="#B2B2B2" d="M67.2,38.4c-0.1,0-0.2,0-0.2-0.1c0,0-0.1-0.1-0.1-0.2c0-0.1,0-0.2,0-0.2c0,0,0.1,0,0.2,0l0.9,0
			c0.1,0,0.2,0,0.3,0c0.1,0,0.1,0.1,0.1,0.2c0,0.1,0,0.2-0.1,0.2c-0.1,0-0.1,0.1-0.3,0.1L67.2,38.4z"/>
		<path fill="#B2B2B2" d="M68,38.4c-0.1,0-0.2,0-0.2-0.1c0,0-0.1-0.1-0.1-0.2c0-0.1,0-0.2,0-0.2c0,0,0.1,0,0.2,0l0.9,0
			c0.1,0,0.2,0,0.3,0c0.1,0,0.1,0.1,0.1,0.2c0,0.1,0,0.2-0.1,0.2c-0.1,0-0.1,0.1-0.3,0.1L68,38.4z"/>
		<path fill="#B2B2B2" d="M68.9,38.4c-0.1,0-0.2,0-0.2-0.1c0,0-0.1-0.1-0.1-0.2c0-0.1,0-0.2,0-0.2c0,0,0.1,0,0.2,0l0.9,0
			c0.1,0,0.2,0,0.3,0c0.1,0,0.1,0.1,0.1,0.2c0,0.1,0,0.2-0.1,0.2c-0.1,0-0.1,0.1-0.3,0.1L68.9,38.4z"/>
		<path fill="#B2B2B2" d="M69.7,38.4c-0.1,0-0.2,0-0.2-0.1c0,0-0.1-0.1-0.1-0.2c0-0.1,0-0.2,0-0.2c0,0,0.1,0,0.2,0l0.9,0
			c0.1,0,0.2,0,0.3,0c0.1,0,0.1,0.1,0.1,0.2c0,0.1,0,0.2-0.1,0.2c-0.1,0-0.1,0.1-0.3,0.1L69.7,38.4z"/>
		<path fill="#B2B2B2" d="M73,35.3c-0.4,0-0.6,0.1-0.8,0.4c-0.2,0.2-0.2,0.6-0.2,1c0,0.4,0.1,0.8,0.2,1c0.2,0.2,0.4,0.3,0.8,0.3
			c0.4,0,0.6-0.1,0.8-0.3c0.2-0.2,0.2-0.5,0.2-1c0-0.4-0.1-0.7-0.2-1C73.6,35.5,73.4,35.3,73,35.3 M73,38.4c-0.2,0-0.5,0-0.7-0.1
			c-0.2-0.1-0.4-0.2-0.5-0.4c-0.1,0.2-0.2,0.3-0.4,0.3c-0.1,0-0.3,0.1-0.4,0.1l-0.5,0c-0.1,0-0.2,0-0.3,0c-0.1,0-0.1-0.1-0.1-0.2
			c0-0.1,0-0.2,0.1-0.2c0.1,0,0.1,0,0.3,0l0.5,0c0.1,0,0.1,0,0.2,0c0.1,0,0.1-0.1,0.2-0.1c0.1-0.1,0.1-0.1,0.1-0.2
			c0-0.1,0.1-0.2,0.1-0.4c0-0.1,0-0.1,0-0.2s0-0.2,0-0.2c0-1.2,0.5-1.9,1.5-1.9c0.5,0,0.9,0.1,1.1,0.4c0.3,0.3,0.4,0.7,0.4,1.3
			c0,0.6-0.1,1.1-0.4,1.4C73.9,38.3,73.5,38.4,73,38.4"/>
		<path fill="#E5E6E6" d="M52,28l-1.4,0c-0.1,0-0.2-0.1-0.2-0.2l0-10.4c0-0.1,0.1-0.2,0.2-0.2l1.4,0c0.1,0,0.2,0.1,0.2,0.2l0,10.4
			C52.2,27.9,52.1,28,52,28"/>
		<path fill="#B2B2B2" d="M9.9,27.5c-0.1,0-0.2-0.1-0.2-0.2l-2-7l0,0l-2,7c0,0.1-0.1,0.2-0.2,0.2l-1.2,0c-0.1,0-0.2-0.1-0.2-0.2
			l-2.6-10c0-0.1,0-0.2,0.1-0.2l1.4,0c0.1,0,0.2,0.1,0.2,0.2L5,24.3l0,0l2-6.9c0-0.1,0.1-0.2,0.2-0.2l1.1,0c0.1,0,0.2,0.1,0.2,0.2
			l2,6.9l0,0l1.6-6.9c0-0.1,0.1-0.2,0.2-0.2l1.4,0c0.1,0,0.1,0.1,0.1,0.2l-2.6,10c0,0.1-0.1,0.2-0.2,0.2L9.9,27.5z"/>
		<path fill="#B2B2B2" d="M18.3,23.7l-1.4-4l0,0l-1.4,4L18.3,23.7z M16,17.3c0-0.1,0.1-0.2,0.2-0.2l1.4,0c0.1,0,0.2,0.1,0.2,0.2
			l3.5,10c0,0.1,0,0.2-0.1,0.2l-1.5,0c-0.1,0-0.2-0.1-0.2-0.2l-0.7-2l-3.9,0l-0.7,2c0,0.1-0.1,0.2-0.2,0.2l-1.5,0
			c-0.1,0-0.1-0.1-0.1-0.2L16,17.3z"/>
		<path fill="#B2B2B2" d="M28,23.8l-1.4-4l0,0l-1.4,4L28,23.8z M25.7,17.4c0-0.1,0.1-0.2,0.2-0.2l1.4,0c0.1,0,0.2,0.1,0.2,0.2
			l3.5,10c0,0.1,0,0.2-0.1,0.2l-1.5,0c-0.1,0-0.2-0.1-0.2-0.2l-0.7-2l-3.9,0l-0.7,2c0,0.1-0.1,0.2-0.2,0.2l-1.5,0
			c-0.1,0-0.1-0.1-0.1-0.2L25.7,17.4z"/>
		<path fill="#B2B2B2" d="M36.2,21.7c0.5,0,0.9-0.1,1.2-0.4c0.3-0.3,0.4-0.6,0.4-1.1c0-0.5-0.1-0.8-0.4-1.1
			c-0.3-0.3-0.7-0.4-1.2-0.4l-2.2,0c-0.1,0-0.1,0-0.1,0.1l0,2.7c0,0.1,0,0.1,0.1,0.1L36.2,21.7z M38,27.5c-0.1,0-0.2-0.1-0.2-0.2
			l-2-4l-1.8,0c-0.1,0-0.1,0-0.1,0.1l0,3.9c0,0.1-0.1,0.2-0.2,0.2l-1.5,0c-0.1,0-0.2-0.1-0.2-0.2l0-10c0-0.1,0.1-0.2,0.2-0.2l4,0
			c0.5,0,0.9,0.1,1.3,0.2c0.4,0.2,0.8,0.4,1.1,0.6c0.3,0.3,0.5,0.6,0.7,1c0.2,0.4,0.3,0.8,0.3,1.3c0,0.7-0.2,1.3-0.5,1.8
			c-0.4,0.5-0.8,0.9-1.4,1.1l2.2,4.2c0,0.1,0,0.1,0,0.1c0,0-0.1,0.1-0.1,0.1L38,27.5z"/>
		<path fill="#B2B2B2" d="M40.7,17.3c0-0.1,0.1-0.2,0.2-0.2l6.6,0c0.1,0,0.2,0.1,0.2,0.2l0,1.3c0,0.1-0.1,0.2-0.2,0.2l-4.8,0
			c-0.1,0-0.1,0-0.1,0.1l0,2.6c0,0.1,0,0.1,0.1,0.1l4,0c0.1,0,0.2,0.1,0.2,0.2l0,1.3c0,0.1-0.1,0.2-0.2,0.2l-4,0
			c-0.1,0-0.1,0-0.1,0.1l0,4c0,0.1-0.1,0.2-0.2,0.2l-1.5,0c-0.1,0-0.2-0.1-0.2-0.2L40.7,17.3z"/>
		<path fill="#B2B2B2" d="M67.4,19.2c-0.1,0-0.2-0.1-0.2-0.2l0-1.5c0-0.1,0.1-0.2,0.2-0.2l1.6,0c0.1,0,0.2,0.1,0.2,0.2l0,1.5
			c0,0.1-0.1,0.2-0.2,0.2L67.4,19.2z M68.2,22.3c-0.5,0-0.9,0.2-1.2,0.5c-0.3,0.3-0.4,0.8-0.4,1.4c0,0.7,0.1,1.3,0.4,1.6
			c0.3,0.3,0.7,0.4,1.2,0.4c0.5,0,0.9-0.1,1.2-0.4c0.3-0.3,0.4-0.8,0.4-1.5C69.8,22.9,69.3,22.3,68.2,22.3 M59,27.9
			c-0.7,0-1.2-0.2-1.5-0.5C57.1,27,57,26.5,57,25.7l0-3.6c0-0.1,0.1-0.2,0.2-0.2l1.6,0c0.1,0,0.2,0.1,0.2,0.2l0,3.2
			c0,0.3,0.1,0.6,0.2,0.7c0.1,0.1,0.3,0.2,0.6,0.2l5.3,0c-0.3-0.5-0.4-1.1-0.4-1.9c0-0.7,0.1-1.3,0.3-1.7c0.2-0.5,0.4-0.9,0.8-1.2
			c0.3-0.3,0.7-0.5,1.1-0.6c0.4-0.1,0.9-0.2,1.4-0.2c0.5,0,1,0.1,1.4,0.2c0.4,0.1,0.8,0.3,1.1,0.6c0.3,0.3,0.6,0.7,0.7,1.2
			c0.2,0.5,0.3,1.1,0.3,1.8c0,0.7-0.1,1.2-0.3,1.7c-0.2,0.4-0.4,0.8-0.7,1.1c-0.3,0.3-0.7,0.5-1.1,0.6c-0.4,0.1-0.9,0.2-1.4,0.2
			L59,27.9z"/>
		<path fill="#B2B2B2" d="M73.8,28.1c-0.1,0-0.2-0.1-0.2-0.2l0-1.3c0-0.1,0.1-0.2,0.2-0.2l0.4,0c0.5,0,0.8-0.1,1-0.4
			c0.2-0.2,0.3-0.6,0.3-1.1l0-5.4c0-0.1,0.1-0.2,0.2-0.2l1.6,0c0.1,0,0.2,0.1,0.2,0.2l0,5.4c0,2.1-1,3.1-3,3.1L73.8,28.1z"/>
		<path fill="#B2B2B2" d="M81.9,28c0,0.1-0.1,0.2-0.2,0.2l-1.6,0c-0.1,0-0.2-0.1-0.2-0.2l0-10.5c0-0.1,0.1-0.2,0.2-0.2l1.6,0
			c0.1,0,0.2,0.1,0.2,0.2L81.9,28z"/>
		<path fill="#B2B2B2" d="M87.7,19.1c-0.5,0-0.9,0.2-1.2,0.6C86.2,20,86,20.5,86,21.2c0,0.7,0.1,1.2,0.4,1.4
			c0.3,0.3,0.7,0.4,1.3,0.4l1.5,0l0-1.9c0-0.7-0.1-1.2-0.4-1.5C88.6,19.2,88.2,19.1,87.7,19.1 M87.5,24.7c-0.5,0-1-0.1-1.4-0.2
			c-0.4-0.1-0.8-0.3-1.1-0.6c-0.3-0.3-0.5-0.6-0.7-1.1c-0.2-0.4-0.2-1-0.2-1.6c0-0.7,0.1-1.3,0.3-1.8c0.2-0.5,0.4-0.9,0.8-1.2
			c0.3-0.3,0.7-0.5,1.1-0.7c0.4-0.1,0.9-0.2,1.3-0.2c0.5,0,1,0.1,1.4,0.2c0.4,0.1,0.8,0.3,1.1,0.6c0.3,0.3,0.5,0.7,0.7,1.1
			c0.2,0.5,0.3,1.1,0.3,1.7l0,3.9c0,1.1-0.3,1.8-0.8,2.3c-0.5,0.5-1.3,0.7-2.4,0.7l-2.3,0c-0.1,0-0.2-0.1-0.2-0.2l0-1.3
			c0-0.1,0.1-0.2,0.2-0.2l2,0c0.2,0,0.4,0,0.6-0.1c0.2,0,0.4-0.1,0.5-0.2c0.1-0.1,0.2-0.3,0.3-0.5c0.1-0.2,0.1-0.5,0.1-0.9
			L87.5,24.7z"/>
	</g>
</g>
</svg>
