<svg xmlns="http://www.w3.org/2000/svg" viewBox="0 0 160 160"><defs><style>.cls-1{fill:#ffca2a;}.cls-2{fill:#f7bc27;}.cls-3{fill:#f1f1f1;}.cls-4{fill:#d1d2d3;}.cls-5{fill:#e5e6e6;}.cls-6{fill:#a7a8ab;}</style></defs><title>Asset 2</title><g id="Layer_2" data-name="Layer 2"><g id="Layer_1-2" data-name="Layer 1"><path class="cls-1" d="M91.23,57.72a3.36,3.36,0,1,0-5.9-2.51L87,53.53a2.4,2.4,0,0,1,3.38,0h0a2.4,2.4,0,0,1,0,3.38l-2,2A3.35,3.35,0,0,0,91.23,57.72Z"/><path class="cls-1" d="M71.42,75.87l-2.81,2.81a2.39,2.39,0,0,1-3.38-3.38L67.49,73a9.87,9.87,0,0,0-1,.15,9.93,9.93,0,0,0-5.84,6l.52.53c1.62.76,4.14,1.91,6.73,3.08l5.85-.61A9.87,9.87,0,0,0,71.42,75.87Z"/><path class="cls-1" d="M27,126l.73-.85-.7.7-6.77-6.77,2.71-2.71-5.08-5.08,3-3,2.8,2.8L27,107.76l-2.8-2.8,3-3L32.28,107,49.5,89.83A16.23,16.23,0,0,1,67.43,66.42l.86-.11a16.21,16.21,0,0,1,5.57.38l7.43-7.43-1.52-1.67a3.25,3.25,0,0,1-.32-4L91.68,34.74a3.25,3.25,0,0,1,2.46-1.47L117,31.4a3.26,3.26,0,0,1,2.37.76l.05,0,35.59,20A80,80,0,1,0,47.39,153.07Z"/><path class="cls-2" d="M140.37,50a3.25,3.25,0,0,1-1.84,5.71l-14.8,1.21a3.25,3.25,0,0,0-3,3.5l.79,9.69a3.25,3.25,0,0,1-3,3.5l-21,1.71a3.29,3.29,0,0,1-2.67-1.05L84.5,62.79,78.59,68.7a16.24,16.24,0,0,1-2.25,28.69l4.29,41.15-9.52,1-.4-3.81-7.14.74-.44-4.2,3.94-.41-.49-4.73-3.94.41-.44-4.2,7.14-.74L66.89,99l-.5,0-17,37.71-8.72-3.94,1.58-3.49-6.54-3,1.74-3.85L41,124.11l2-4.33-3.61-1.63,1.74-3.85,6.54,3,9.2-20.38-.59-.28L27.71,125.16,27,126l20.41,27.06A80,80,0,0,0,155.05,52.25l-35.59-20Z"/><path class="cls-3" d="M86.1,53.38a3.36,3.36,0,1,1,2.3,5.51l-.54.54L89.79,61l29.56-28.82.11.06-.05,0A3.26,3.26,0,0,0,117,31.4l-22.9,1.87a3.25,3.25,0,0,0-2.46,1.47L79.44,53.63a3.25,3.25,0,0,0,.32,4l1.52,1.67,4-4A3.34,3.34,0,0,1,86.1,53.38Z"/><path class="cls-3" d="M89.79,61l-1.93-1.54L84.5,62.79,94.9,74.24a3.29,3.29,0,0,0,2.67,1.05l21-1.71a3.25,3.25,0,0,0,3-3.5l-.79-9.69a3.25,3.25,0,0,1,3-3.5l14.8-1.21A3.25,3.25,0,0,0,140.37,50L119.47,32.21l-.11-.06Z"/><path class="cls-4" d="M73.11,74.19l-1.68,1.68a9.87,9.87,0,0,1,2.32,6.28l4.48-.5A9.89,9.89,0,0,0,73.11,74.19Z"/><path class="cls-4" d="M60.65,79.16l-.09.24.61.29Z"/><path class="cls-4" d="M53.62,76.21a16.21,16.21,0,0,1,11.12-9.13,16.22,16.22,0,0,1,2.68-.67A16.23,16.23,0,0,0,49.5,89.83L32.28,107,27.21,102l-3,3,2.8,2.8-3.36,3.36-2.8-2.8-3,3,5.08,5.08-2.71,2.71L27,125.86l.7-.7L55.63,92.89A16.22,16.22,0,0,1,53.62,76.21Z"/><path class="cls-4" d="M56.85,96.88l.82-1.81a16.12,16.12,0,0,1-2-2.18L27.71,125.16,56.27,96.6Z"/><path class="cls-5" d="M61.17,79.69l3.4,3.41,3.32-.33C65.31,81.6,62.79,80.44,61.17,79.69Z"/><path class="cls-5" d="M67.49,73h0l-.27-.09c-.25.07-.5.16-.75.25A9.87,9.87,0,0,1,67.49,73Z"/><path class="cls-5" d="M66.37,98.28a16.27,16.27,0,0,1-9.52-1.4l-9.2,20.38-6.54-3-1.74,3.85L43,119.78l-2,4.33-3.61-1.63-1.74,3.85,6.54,3-1.58,3.49,8.72,3.94L66.39,99l.5,0-.07-.67Z"/><path class="cls-5" d="M53.82,84.14A16.24,16.24,0,0,1,64.74,67.08a16.23,16.23,0,0,0-9.11,25.8l1-1.17A16.15,16.15,0,0,1,53.82,84.14Z"/><path class="cls-5" d="M67.72,72.82l-.49.13.27.09Z"/><path class="cls-5" d="M61.17,79.69l-.61-.29a9.83,9.83,0,0,0-.44,4.08s1.87-.13,4.45-.38Z"/><path class="cls-5" d="M78.23,81.65a15.58,15.58,0,0,0,1.59-.22,9.9,9.9,0,0,0-5.9-8l-.81.81A9.89,9.89,0,0,1,78.23,81.65Z"/><path class="cls-5" d="M66.37,98.28a16.27,16.27,0,0,1-9.73-6.56l-1,1.17a16.12,16.12,0,0,0,2,2.18l-.82,1.81A16.27,16.27,0,0,0,66.37,98.28Z"/><path class="cls-3" d="M66.48,73.2a9.89,9.89,0,0,0-6.77,5l.94.95A9.93,9.93,0,0,1,66.48,73.2Z"/><path class="cls-3" d="M73.75,82.15l-5.85.61,3.71,1.67,2-.55A10,10,0,0,0,73.75,82.15Z"/><path class="cls-3" d="M73.17,67.37l.69-.69a16.21,16.21,0,0,0-5.57-.38l-.86.11c.33.07.66.15,1,.24A16.12,16.12,0,0,1,73.17,67.37Z"/><path class="cls-3" d="M83.22,89.58A16.23,16.23,0,0,1,66.89,99l2.46,23.55-7.14.74.44,4.2,3.94-.41.49,4.73-3.94.41.44,4.2,7.14-.74.4,3.81,9.52-1L76.34,97.39A16.24,16.24,0,0,0,78.59,68.7l-.88.88A16.24,16.24,0,0,1,83.22,89.58Z"/><path class="cls-3" d="M71.61,84.44l1.69.75a9.87,9.87,0,0,0,.31-1.3Z"/><path class="cls-3" d="M68.41,66.66c-.33-.1-.66-.17-1-.24a16.22,16.22,0,0,0-2.68.67A16.23,16.23,0,0,1,68.41,66.66Z"/><path class="cls-3" d="M59.71,78.21c-.11.2-.22.4-.31.61a11.18,11.18,0,0,0,1.16.58l.09-.24Z"/><path class="cls-3" d="M73.61,83.89l4.7-1.3q0-.47-.08-.94l-4.48.5A10,10,0,0,1,73.61,83.89Z"/><path class="cls-3" d="M73.3,85.19C75.69,86.25,77.43,87,77.44,87a9.83,9.83,0,0,0,.86-4.38l-4.7,1.3A9.87,9.87,0,0,1,73.3,85.19Z"/><path class="cls-3" d="M67.9,82.77l-3.32.33,2.58,2.57,4.45-1.23Z"/><path class="cls-3" d="M66.48,73.2c.25-.09.49-.18.75-.25a9.9,9.9,0,0,0-10.38,2.29s1.16,1.26,2.85,3A9.89,9.89,0,0,1,66.48,73.2Z"/><path class="cls-3" d="M81.66,81.66,79.5,77.94a16.28,16.28,0,0,1,.58,4.16Z"/><path class="cls-3" d="M73.17,67.37a16.12,16.12,0,0,0-4.76-.71,16.13,16.13,0,0,1,3.79,1.68Z"/><path class="cls-3" d="M83.22,89.58a16.24,16.24,0,0,0-5.51-20l-1.81,1.81a16.13,16.13,0,0,1,3.6,6.55l2.16,3.72-1.58.43A16.21,16.21,0,0,1,66.37,98.28l.45.11.07.67A16.23,16.23,0,0,0,83.22,89.58Z"/><path class="cls-3" d="M73.3,85.19l-1.69-.75-4.45,1.23c2.09,2.07,3.67,3.61,3.7,3.58A9.83,9.83,0,0,0,73.3,85.19Z"/><path class="cls-3" d="M53.82,84.14a16.15,16.15,0,0,0,2.82,7.58l3.59-4.14,6.92-1.91L64.57,83.1c-2.58.25-4.45.42-4.45.38a9.83,9.83,0,0,1,.44-4.08,11.18,11.18,0,0,1-1.16-.58c.09-.21.2-.41.31-.61-1.69-1.71-2.88-2.94-2.85-3a9.9,9.9,0,0,1,10.38-2.29l.49-.13,4.49-4.49a16.13,16.13,0,0,0-3.79-1.68,16.23,16.23,0,0,0-3.67.42A16.24,16.24,0,0,0,53.82,84.14Z"/><path class="cls-3" d="M73.91,73.38a9.9,9.9,0,0,1,5.9,8,15.58,15.58,0,0,1-1.59.22q.06.47.08.94l1.78-.49a16.28,16.28,0,0,0-.58-4.16l-3.73-6.42Z"/><path class="cls-3" d="M77.44,87s-1.75-.72-4.14-1.78a9.83,9.83,0,0,1-2.44,4.05s-1.61-1.51-3.7-3.58l-6.92,1.91-3.59,4.14a16.27,16.27,0,0,0,9.73,6.56A16.21,16.21,0,0,0,80.09,82.1l-1.78.49A9.83,9.83,0,0,1,77.44,87Z"/><path class="cls-3" d="M79.5,77.94a16.13,16.13,0,0,0-3.6-6.55l-.13.13Z"/><path class="cls-6" d="M90.38,53.53h0a2.4,2.4,0,0,0-3.38,0l-1.68,1.68a3.34,3.34,0,0,0,3.08,3.68l2-2A2.4,2.4,0,0,0,90.38,53.53Z"/><path class="cls-6" d="M83.24,61.4l-2-2.15-7.43,7.43a16.18,16.18,0,0,1,3.72,1.42Z"/><path class="cls-6" d="M65.24,78.68a2.4,2.4,0,0,0,3.38,0l2.81-2.81c-.18-.21-.37-.43-.57-.63A9.84,9.84,0,0,0,67.51,73h0L65.24,75.3A2.4,2.4,0,0,0,65.24,78.68Z"/><path class="cls-6" d="M77.58,68.11c.35.18.68.38,1,.59l5.91-5.91L83.24,61.4Z"/><path class="cls-6" d="M86.1,58l1.77,1.41.54-.54a3.34,3.34,0,0,1-3.08-3.68l-4,4,2,2.15Z"/><polygon class="cls-6" points="86.1 58.01 83.24 61.4 84.5 62.79 87.86 59.43 86.1 58.01"/><path class="cls-6" d="M71.42,75.87l1.68-1.68c-.2-.11-.4-.22-.61-.31a9.83,9.83,0,0,0-5-.83,9.84,9.84,0,0,1,3.35,2.2C71.06,75.44,71.24,75.65,71.42,75.87Z"/><path class="cls-6" d="M67.5,73h0Z"/><path class="cls-6" d="M67.51,73a9.83,9.83,0,0,1,5,.83c.21.1.41.21.61.31l.81-.81a9.65,9.65,0,0,0-6.19-.56L67.5,73Z"/><path class="cls-6" d="M75.1,68.1a16.4,16.4,0,0,1,1.72.91l.76-.9a16.18,16.18,0,0,0-3.72-1.42l-.69.69A16.37,16.37,0,0,1,75.1,68.1Z"/><path class="cls-6" d="M76.82,69q.46.28.89.58l.88-.88c-.33-.21-.67-.41-1-.59Z"/><path class="cls-6" d="M75.34,70.76,76.82,69a15.83,15.83,0,0,0-3.65-1.63l-1,1A16.22,16.22,0,0,1,75.34,70.76Z"/><path class="cls-6" d="M75.91,71.39l1.81-1.81q-.43-.3-.89-.58l-1.48,1.76C75.54,71,75.72,71.18,75.91,71.39Z"/><path class="cls-6" d="M73.91,73.38l1.86-1.86-.44-.76a16.22,16.22,0,0,0-3.13-2.43l-4.49,4.49a9.65,9.65,0,0,1,6.19.56Z"/><path class="cls-6" d="M75.78,71.52l.13-.13c-.19-.21-.37-.43-.57-.63Z"/></g></g></svg>