<svg xmlns="http://www.w3.org/2000/svg" xmlns:xlink="http://www.w3.org/1999/xlink" viewBox="0 0 213.88 194.31"><defs><style>.cls-1{fill:none;}.cls-2{clip-path:url(#clip-path);}.cls-3{fill:url(#linear-gradient);}.cls-10,.cls-4{fill:#55c3ea;}.cls-5{fill:#a2dbea;}.cls-6{fill:#7ecfea;}.cls-7{fill:#ffca2a;}.cls-8{fill:#78cfe6;}.cls-9{fill:#acdeea;}.cls-10{opacity:0.81;}</style><clipPath id="clip-path"><circle class="cls-1" cx="109.63" cy="80.08" r="80"/></clipPath><linearGradient id="linear-gradient" x1="95.13" y1="127.91" x2="110.42" y2="-212.41" gradientUnits="userSpaceOnUse"><stop offset="0" stop-color="#29427f"/><stop offset="1" stop-color="#55c3ea"/></linearGradient></defs><title>Asset 3</title><g id="Layer_2" data-name="Layer 2"><g id="Layer_1-2" data-name="Layer 1"><g class="cls-2"><rect class="cls-3" width="195.86" height="131.11"/><path class="cls-4" d="M207.12,193.43H11.25v-55c0-11.19-4.75-30.57,6.24-36.67C39.56,89.51,63.87,76.82,88.77,81c7.35,1.24,14.37,3.92,21.56,5.9a116.39,116.39,0,0,0,50.22,2.55c5.8-1,11.58-2.41,17.47-2.32,6.29.1,12,2.48,18.08,3.35,4.19.6,7.74-.55,10.72,3.43,4.77,6.35.29,17.17.29,24.29v75.2Z"/><path class="cls-5" d="M85.95,67.93l-5.86,7.76,9.31,7a7.57,7.57,0,0,1,2.94,5h0a21.22,21.22,0,0,0,8.24,14.09l16.89,12.75A6.06,6.06,0,0,0,126,113.4l8.75-11.6a6.06,6.06,0,0,0-1.19-8.49l-17-12.8a21.22,21.22,0,0,0-15.68-4.08h0A7.57,7.57,0,0,1,95.28,75Z"/><path class="cls-6" d="M124.33,112.17a4,4,0,0,1-5.62.78L101.83,100.2a19.29,19.29,0,0,1-7.45-12.73,9.69,9.69,0,0,0-3.74-6.39l-8.78-6.57L85.24,70,94,76.62a9.56,9.56,0,0,0,7.11,1.85h0a19,19,0,0,1,14.17,3.69l17,12.8a4,4,0,0,1,.78,5.62Z"/><path class="cls-7" d="M86.49,72l-2.61,3.46a.88.88,0,0,1-1.18.2l-4.38-2.92a.88.88,0,0,1-.21-1.27l3-3.91a.88.88,0,0,1,1.26-.13l3.95,3.37A.88.88,0,0,1,86.49,72Z"/><rect class="cls-8" x="76.88" y="70.53" width="12.22" height="2.64" rx="1.24" ry="1.24" transform="translate(-24.36 94.8) rotate(-52.95)"/><rect class="cls-9" x="108.68" y="76.31" width="9.42" height="34.05" rx="2.07" ry="2.07" transform="translate(-7.73 176.4) rotate(-73.9)"/><path class="cls-10" d="M213,194.31H17.16V134.24q0-10.6,0-21.21c0-6.82,4.42-9.36,9.83-12.18,4.37-2.28,8.83-6.59,13.6-7.89,5.09-1.38,12.29.09,17.55.33,13,.59,26.1,1.66,38.91,4.31,6.52,1.35,13,3.11,19.64,3.5,22.93,1.37,43.68-13.34,66.36-17,6.66-1.08,20.91-3.17,26.77,1.25,5.3,4,3.67,13.14,3.83,18.82.76,28.48-.62,57-.62,85.43Z"/></g></g></g></svg>