<?xml version="1.0" encoding="utf-8"?>
<!-- Generator: Adobe Illustrator 18.0.0, SVG Export Plug-In . SVG Version: 6.00 Build 0)  -->
<!DOCTYPE svg PUBLIC "-//W3C//DTD SVG 1.1//EN" "http://www.w3.org/Graphics/SVG/1.1/DTD/svg11.dtd">
<svg version="1.1" id="Layer_1" xmlns="http://www.w3.org/2000/svg" xmlns:xlink="http://www.w3.org/1999/xlink" x="0px" y="0px"
	 viewBox="0 0 300 300" enable-background="new 0 0 300 300" xml:space="preserve">
<g>
	<path fill="#BCBEC0" d="M150.1,79V21.8H7.1v257.4h286V79H150.1z M64.3,250.6H35.7V222h28.6V250.6z M64.3,193.4H35.7v-28.6h28.6
		V193.4z M64.3,136.2H35.7v-28.6h28.6V136.2z M64.3,79H35.7V50.4h28.6V79z M121.5,250.6H92.9V222h28.6V250.6z M121.5,193.4H92.9
		v-28.6h28.6V193.4z M121.5,136.2H92.9v-28.6h28.6V136.2z M121.5,79H92.9V50.4h28.6V79z M264.5,250.6H150.1V222h28.6v-28.6h-28.6
		v-28.6h28.6v-28.6h-28.6v-28.6h114.4V250.6z M235.9,136.2h-28.6v28.6h28.6V136.2z M235.9,193.4h-28.6V222h28.6V193.4z"/>
</g>
</svg>
