<?xml version="1.0" encoding="utf-8"?>
<!-- Generator: Adobe Illustrator 18.0.0, SVG Export Plug-In . SVG Version: 6.00 Build 0)  -->
<!DOCTYPE svg PUBLIC "-//W3C//DTD SVG 1.1//EN" "http://www.w3.org/Graphics/SVG/1.1/DTD/svg11.dtd">
<svg version="1.1" id="Layer_1" xmlns="http://www.w3.org/2000/svg" xmlns:xlink="http://www.w3.org/1999/xlink" x="0px" y="0px"
	 viewBox="0 0 32 32" enable-background="new 0 0 32 32" xml:space="preserve">
<path fill="#FFFFFF" d="M7,14c2.4,4.6,6.2,8.4,10.9,10.8l3.6-3.6c0.4-0.4,1.1-0.6,1.7-0.4c1.9,0.6,3.9,0.9,5.9,0.9
	c0.9,0,1.7,0.7,1.7,1.6v5.7c0,0.9-0.7,1.6-1.7,1.6C13.6,30.7,1,18.2,1,2.8c0-0.9,0.7-1.6,1.7-1.6h5.8c0.9,0,1.7,0.7,1.7,1.6
	c0,2.1,0.3,4,0.9,5.9c0.2,0.6,0,1.2-0.4,1.7L7,14z"/>
</svg>
