<?xml version="1.0" encoding="utf-8"?>
<!-- Generator: Adobe Illustrator 18.0.0, SVG Export Plug-In . SVG Version: 6.00 Build 0)  -->
<!DOCTYPE svg PUBLIC "-//W3C//DTD SVG 1.1//EN" "http://www.w3.org/Graphics/SVG/1.1/DTD/svg11.dtd">
<svg version="1.1" id="Layer_1" xmlns="http://www.w3.org/2000/svg" xmlns:xlink="http://www.w3.org/1999/xlink" x="0px" y="0px"
	 viewBox="0 0 48 48" enable-background="new 0 0 48 48" xml:space="preserve">
<g>
	<path fill="#4DC8EF" d="M46.7,34.7H1.3c-0.7,0-1.2-0.5-1.2-1.2v-2.8c0-0.7,0.5-1.2,1.2-1.2h45.4c0.7,0,1.2,0.5,1.2,1.2v2.8
		C48,34.2,47.4,34.7,46.7,34.7z"/>
	<path fill="#4DC8EF" d="M42.6,26.9C48.1,35,39.2,43.7,31,38.3c-0.4-0.3-0.7-0.6-1-1c-5.5-8.1,3.3-16.9,11.5-11.4
		C42,26.2,42.3,26.5,42.6,26.9z"/>
	<path fill="#4DC8EF" d="M46.7,18.9H1.3c-0.7,0-1.2-0.5-1.2-1.2v-2.8c0-0.7,0.5-1.2,1.2-1.2h45.4c0.7,0,1.2,0.5,1.2,1.2v2.8
		C48,18.4,47.4,18.9,46.7,18.9z"/>
	<path fill="#4DC8EF" d="M26.6,11.1c5.5,8.1-3.3,16.9-11.5,11.4c-0.4-0.3-0.7-0.6-1-1c-5.5-8.1,3.3-16.9,11.5-11.4
		C26,10.4,26.4,10.7,26.6,11.1z"/>
</g>
</svg>
