<?xml version="1.0" encoding="utf-8"?>
<!-- Generator: Adobe Illustrator 18.0.0, SVG Export Plug-In . SVG Version: 6.00 Build 0)  -->
<!DOCTYPE svg PUBLIC "-//W3C//DTD SVG 1.1//EN" "http://www.w3.org/Graphics/SVG/1.1/DTD/svg11.dtd">
<svg version="1.1" id="Layer_1" xmlns="http://www.w3.org/2000/svg" xmlns:xlink="http://www.w3.org/1999/xlink" x="0px" y="0px"
	 viewBox="0 0 32 32" enable-background="new 0 0 32 32" xml:space="preserve">
<path fill="#4EC6ED" d="M25.4,22.7c-1.2,0-2.3,0.5-3.1,1.2l-11.2-6.5c0.1-0.4,0.1-0.7,0.1-1.1c0-0.4-0.1-0.7-0.1-1.1l11.1-6.4
	c0.8,0.8,2,1.3,3.2,1.3c2.6,0,4.7-2.1,4.7-4.7S28,0.7,25.4,0.7s-4.7,2.1-4.7,4.7c0,0.4,0.1,0.7,0.1,1.1L9.7,12.9
	c-0.8-0.8-2-1.3-3.2-1.3c-2.6,0-4.7,2.1-4.7,4.7S3.9,21,6.5,21c1.2,0,2.4-0.5,3.2-1.3l11.2,6.5c-0.1,0.3-0.1,0.7-0.1,1
	c0,2.5,2.1,4.6,4.6,4.6s4.6-2,4.6-4.6S27.9,22.7,25.4,22.7z"/>
</svg>
