<svg xmlns="http://www.w3.org/2000/svg" xmlns:xlink="http://www.w3.org/1999/xlink" viewBox="0 0 160 160"><defs><style>.cls-1{fill:none;}.cls-2{clip-path:url(#clip-path);}.cls-3{fill:#ffca2a;}.cls-4{isolation:isolate;}.cls-5{clip-path:url(#clip-path-2);}.cls-6{fill:#faac2d;}.cls-7{fill:#e5e5e4;}.cls-8{clip-path:url(#clip-path-3);}.cls-9{fill:#fff;}.cls-10{fill:#4fc8ef;}</style><clipPath id="clip-path"><circle class="cls-1" cx="80" cy="80" r="80"/></clipPath><clipPath id="clip-path-2"><polygon class="cls-1" points="48.57 131.77 38.4 43.36 103.22 41.12 113.38 129.52 48.57 131.77"/></clipPath><clipPath id="clip-path-3"><polygon class="cls-1" points="52.33 126.45 42.17 38.05 106.98 35.8 117.15 124.2 52.33 126.45"/></clipPath></defs><title>Asset 1</title><g id="Layer_2" data-name="Layer 2"><g id="Layer_1-2" data-name="Layer 1"><g class="cls-2"><circle class="cls-3" cx="80" cy="80" r="80"/><g class="cls-4"><g class="cls-5"><path class="cls-6" d="M52.63,118l-.26-2.24,57.06-2,.26,2.24-57.06,2M52,112.7l-.26-2.24,57.06-2,.26,2.24L52,112.7m-.61-5.28-.26-2.24,57.06-2,.26,2.24-57.06,2m-.61-5.28-.26-2.24,57.06-2,.26,2.24-57.06,2m-.61-5.28-.26-2.24,57.06-2,.26,2.24-57.06,2m-.61-5.28-.26-2.24,57.06-2,.26,2.24-57.06,2M49,86.3l-.26-2.24,57.06-2,.26,2.24L49,86.3M48.39,81l-.26-2.24,57.06-2,.26,2.24L48.39,81m-.61-5.28-.26-2.24,57.06-2,.26,2.24-57.06,2m31.68-6.4-.26-2.24L104,66.25l.26,2.24-24.78.86m-.61-5.28-.26-2.24L103.37,61l.26,2.24-24.78.86m-.61-5.28L78,56.55l24.78-.86.26,2.24-24.78.86m-.61-5.28-.26-2.24,24.78-.86.26,2.24-24.78.86M45.85,68.27,43.42,47.15,74,46.09,76.4,67.21,45.85,68.27M77,48.23,76.77,46l24.78-.86.26,2.24L77,48.23m26.19-7.11L38.4,43.36l10.16,88.4,64.81-2.25-10.16-88.4"/><polyline class="cls-7" points="73.97 46.09 43.42 47.15 45.85 68.27 76.4 67.21 73.97 46.09"/><polyline class="cls-7" points="101.55 45.13 76.77 45.99 77.03 48.23 101.81 47.37 101.55 45.13"/><polyline class="cls-7" points="102.16 50.41 77.38 51.27 77.63 53.51 102.42 52.65 102.16 50.41"/><polyline class="cls-7" points="102.77 55.69 77.98 56.55 78.24 58.79 103.02 57.93 102.77 55.69"/><polyline class="cls-7" points="103.37 60.97 78.59 61.83 78.85 64.07 103.63 63.21 103.37 60.97"/><polyline class="cls-7" points="103.98 66.25 79.2 67.11 79.45 69.35 104.24 68.49 103.98 66.25"/><polyline class="cls-7" points="104.59 71.53 47.52 73.51 47.78 75.75 104.84 73.77 104.59 71.53"/><polyline class="cls-7" points="105.19 76.8 48.13 78.78 48.39 81.03 105.45 79.05 105.19 76.8"/><polyline class="cls-7" points="105.8 82.08 48.73 84.06 48.99 86.3 106.06 84.32 105.8 82.08"/><polyline class="cls-7" points="106.41 87.36 49.34 89.34 49.6 91.58 106.66 89.6 106.41 87.36"/><polyline class="cls-7" points="107.01 92.64 49.95 94.62 50.21 96.86 107.27 94.88 107.01 92.64"/><polyline class="cls-7" points="107.62 97.92 50.56 99.9 50.81 102.14 107.88 100.16 107.62 97.92"/><polyline class="cls-7" points="108.23 103.2 51.16 105.18 51.42 107.42 108.48 105.44 108.23 103.2"/><polyline class="cls-7" points="108.83 108.48 51.77 110.46 52.03 112.7 109.09 110.72 108.83 108.48"/><polyline class="cls-7" points="109.44 113.76 52.38 115.73 52.63 117.97 109.7 115.99 109.44 113.76"/></g></g><g class="cls-4"><g class="cls-8"><path class="cls-9" d="M56.4,112.65l-.26-2.24,57.06-2,.26,2.24-57.06,2m-.61-5.27-.26-2.24,57.06-2,.26,2.24-57.06,2m-.61-5.28-.26-2.24,57.06-2,.26,2.24-57.06,2m-.61-5.28-.26-2.24,57.06-2,.26,2.24-57.06,2M54,91.54l-.26-2.24,57.06-2,.26,2.24L54,91.54m-.61-5.28L53.11,84l57.06-2,.26,2.24-57.06,2M52.76,81l-.26-2.24,57.06-2,.26,2.24L52.76,81m-.61-5.27-.26-2.24,57.06-2,.26,2.24-57.06,2m-.61-5.28-.26-2.24,57.06-2,.26,2.24-57.06,2M83.22,64,83,61.79l24.78-.86.26,2.24L83.22,64m-.61-5.28-.26-2.24,24.78-.86.26,2.24-24.78.86M82,53.47l-.26-2.24,24.78-.86.26,2.24L82,53.47m-.61-5.28L81.14,46l24.78-.86.26,2.24-24.78.86M49.61,62.95,47.19,41.83l30.56-1.06,2.43,21.12L49.61,62.95m31.18-20-.26-2.24,24.78-.86.26,2.24-24.78.86M107,35.8,42.17,38l10.16,88.4,64.81-2.25L107,35.8"/><polyline class="cls-7" points="77.74 40.77 47.19 41.83 49.61 62.95 80.17 61.89 77.74 40.77"/><polyline class="cls-7" points="105.32 39.81 80.54 40.67 80.79 42.91 105.58 42.05 105.32 39.81"/><polyline class="cls-7" points="105.92 45.09 81.14 45.95 81.4 48.19 106.18 47.33 105.92 45.09"/><polyline class="cls-7" points="106.53 50.37 81.75 51.23 82.01 53.47 106.79 52.61 106.53 50.37"/><polyline class="cls-7" points="107.14 55.65 82.36 56.51 82.61 58.75 107.39 57.89 107.14 55.65"/><polyline class="cls-7" points="107.75 60.93 82.96 61.79 83.22 64.03 108 63.17 107.75 60.93"/><polyline class="cls-7" points="108.35 66.21 51.29 68.19 51.55 70.43 108.61 68.45 108.35 66.21"/><polyline class="cls-7" points="108.96 71.49 51.9 73.46 52.15 75.71 109.22 73.73 108.96 71.49"/><polyline class="cls-7" points="109.56 76.77 52.5 78.74 52.76 80.98 109.82 79 109.56 76.77"/><polyline class="cls-7" points="110.17 82.05 53.11 84.02 53.37 86.26 110.43 84.28 110.17 82.05"/><polyline class="cls-7" points="110.78 87.33 53.72 89.3 53.97 91.54 111.04 89.56 110.78 87.33"/><polyline class="cls-7" points="111.39 92.61 54.32 94.58 54.58 96.82 111.64 94.84 111.39 92.61"/><polyline class="cls-7" points="111.99 97.89 54.93 99.86 55.19 102.1 112.25 100.12 111.99 97.89"/><polyline class="cls-7" points="112.6 103.17 55.54 105.14 55.79 107.38 112.86 105.4 112.6 103.17"/><polyline class="cls-7" points="113.21 108.44 56.14 110.42 56.4 112.65 113.46 110.68 113.21 108.44"/></g></g><circle class="cls-10" cx="116.18" cy="106.53" r="15.87"/><polygon class="cls-9" points="113.09 114.14 106.36 107.8 109.15 104.84 113.08 108.54 123.21 98.91 126.01 101.86 113.09 114.14"/></g></g></g></svg>