<?xml version="1.0" encoding="utf-8"?>
<!-- Generator: Adobe Illustrator 18.0.0, SVG Export Plug-In . SVG Version: 6.00 Build 0)  -->
<!DOCTYPE svg PUBLIC "-//W3C//DTD SVG 1.1//EN" "http://www.w3.org/Graphics/SVG/1.1/DTD/svg11.dtd">
<svg version="1.1" id="Layer_1" xmlns="http://www.w3.org/2000/svg" xmlns:xlink="http://www.w3.org/1999/xlink" x="0px" y="0px"
	 viewBox="0 0 300 300" enable-background="new 0 0 300 300" xml:space="preserve">
<g>
	<path fill="#29AAE1" d="M9.7,240.4c31,2.4,58.8-4.9,84.1-24.1c-26.2-3-44.3-15.9-53.8-41c8.6,0.2,16.5,1,24.9-1.2
		c-28.4-9.3-43.6-28.2-45.1-58.1c7.9,3.7,15.9,6,24.7,6.4c-11.6-9.3-19.8-20.9-22.8-35.6c-3-14.5-1.2-28.5,6-42
		c4.7,4.7,9.3,9.1,13.8,13.6c29,28.7,64,43.9,104.3,47.2c0.6,0.1,1.2,0,1.4,0c0-5.3,0-10.4,0-15.5c-0.2-24.7,19-50.2,47.1-55.4
		c18.5-3.4,35.5,0.9,49.7,14c3,2.7,5.9,3.6,9.5,2.2c8.2-3.1,16.4-6.2,24.6-9.4c2.1-0.8,4-1.8,6.8-3c-4.6,13.1-12.6,22.7-22.7,31
		c10.2-0.6,19.7-4.2,29.7-6.9c-0.5,0.8-1,1.7-1.5,2.4c-6.6,9.1-14.3,17.2-23,24.1c-2.2,1.7-3.1,3.5-3.2,6.3
		c-0.2,12.9-1,25.7-3.9,38.3c-10.1,44.4-32.8,80.4-70.4,106.1c-20.3,13.9-42.8,22.5-67.2,25.2c-22.8,2.5-45.6,2.4-68-3.8
		c-14.9-4.1-28.8-10.4-42.2-18.1c-0.7-0.4-1.4-0.9-2.1-1.4C10.1,241.6,10.1,241.4,9.7,240.4z"/>
</g>
</svg>
