<?xml version="1.0" encoding="utf-8"?>
<!-- Generator: Adobe Illustrator 18.0.0, SVG Export Plug-In . SVG Version: 6.00 Build 0)  -->
<!DOCTYPE svg PUBLIC "-//W3C//DTD SVG 1.1//EN" "http://www.w3.org/Graphics/SVG/1.1/DTD/svg11.dtd">
<svg version="1.1" id="Layer_1" xmlns="http://www.w3.org/2000/svg" xmlns:xlink="http://www.w3.org/1999/xlink" x="0px" y="0px"
	 viewBox="0 0 300 300" enable-background="new 0 0 300 300" xml:space="preserve">
<path fill="#D1D3D4" d="M110,219.9c22.5,22.5,59,22.5,81.5,0s22.5-59,0-81.5L110,219.9z M237.1,6.5L64.4,6.4
	c-16,0-28.8,12.8-28.8,28.8v230.4c0,16,12.8,28.8,28.8,28.8h172.8c16,0,28.8-12.8,28.8-28.8V35.2C265.9,19.2,253.1,6.5,237.1,6.5z
	 M122,35.2c7.9,0,14.4,6.5,14.4,14.4S129.9,64,122,64s-14.4-6.5-14.4-14.4S114,35.2,122,35.2z M78.8,35.2c7.9,0,14.4,6.5,14.4,14.4
	S86.7,64,78.8,64s-14.4-6.5-14.4-14.4S70.8,35.2,78.8,35.2z M150.8,265.6c-47.7,0-86.4-38.7-86.4-86.4s38.7-86.4,86.4-86.4
	s86.4,38.7,86.4,86.4S198.4,265.6,150.8,265.6z"/>
</svg>
