<?xml version="1.0" encoding="utf-8"?>
<!-- Generator: Adobe Illustrator 18.0.0, SVG Export Plug-In . SVG Version: 6.00 Build 0)  -->
<!DOCTYPE svg PUBLIC "-//W3C//DTD SVG 1.1//EN" "http://www.w3.org/Graphics/SVG/1.1/DTD/svg11.dtd">
<svg version="1.1" id="Layer_1" xmlns="http://www.w3.org/2000/svg" xmlns:xlink="http://www.w3.org/1999/xlink" x="0px" y="0px"
	 viewBox="0 0 300 300" enable-background="new 0 0 300 300" xml:space="preserve">
<g>
	<g>
		<path fill="#D1D3D4" d="M28.3,122.5c-7.6-7.6-15-15-22.5-22.5c67.6-85.2,216.8-89.8,290.5-0.3c-7.5,7.5-14.9,14.9-22.6,22.6
			c-31.5-37.2-73.2-55.4-122.4-55.4C102,66.8,60.3,84.9,28.3,122.5z"/>
		<path fill="#D1D3D4" d="M250.9,146.3c-7.5,7.5-14.9,14.9-22.6,22.6c-20.1-23.8-46.2-35.3-77.1-35.4c-30.9,0-57.1,11.3-77,34.9
			c-7.6-7.6-15.1-15.1-22.6-22.6C97.9,87.5,200.6,84.9,250.9,146.3z"/>
		<path fill="#D1D3D4" d="M207.4,189.2c-7.7,7.7-15.2,15.2-22.6,22.6c-21.3-21.3-48.8-21.3-66.9-0.4c-7.5-7.5-15-15-22.6-22.6
			C118.1,157.7,177.7,153,207.4,189.2z"/>
		<path fill="#D1D3D4" d="M151.1,265.8c-10.5,0-19.2-8.6-19.4-19.1c-0.1-10.6,8.4-19.3,18.9-19.5c10.9-0.1,19.7,8.5,19.6,19.3
			C170.3,257.1,161.6,265.8,151.1,265.8z"/>
	</g>
</g>
</svg>
