<?xml version="1.0" encoding="utf-8"?>
<!-- Generator: Adobe Illustrator 18.0.0, SVG Export Plug-In . SVG Version: 6.00 Build 0)  -->
<!DOCTYPE svg PUBLIC "-//W3C//DTD SVG 1.1//EN" "http://www.w3.org/Graphics/SVG/1.1/DTD/svg11.dtd">
<svg version="1.1" id="Layer_1" xmlns="http://www.w3.org/2000/svg" xmlns:xlink="http://www.w3.org/1999/xlink" x="0px" y="0px"
	 viewBox="0 0 300 300" enable-background="new 0 0 300 300" xml:space="preserve">
<g id="jaU3me.tif_54_">
	<g>
		<path fill="#D1D2D3" d="M167.9,260.2c-9.8,0-19.5,0-29.3,0c-1.2-0.1-2.4-0.4-3.6-0.4c-12.8-0.3-25.7-0.3-38.5-0.9
			c-16.5-0.7-33.1-1.5-49.6-2.9c-17.1-1.5-28.8-10.3-34-27.5c-3.6-12-4.4-24.3-5.3-36.6c-0.5-6.2-0.8-12.4-1.2-18.6
			c0-14.9,0-29.9,0-44.8c0.2-0.8,0.4-1.6,0.5-2.5c0.5-7.9,0.8-15.8,1.3-23.8c0.7-10.9,2.1-21.8,6.1-32.1
			c4.9-12.7,13.8-21.1,27.1-23.3c10.5-1.7,21.2-2.3,31.8-2.7c17.7-0.8,35.4-1,53.1-1.5c1.1,0,2.2-0.3,3.3-0.4c13.7,0,27.4,0,41.1,0
			c1,0.1,2,0.4,3,0.4c12.9,0.3,25.8,0.3,38.7,0.9c14.9,0.7,29.9,1.4,44.8,2.9c11.6,1.2,20.7,7.4,26.5,17.9c4.6,8.3,6.9,17.6,7.7,27
			c1.1,13.2,1.7,26.4,2.6,39.5c0.1,0.9,0.3,1.8,0.4,2.8c0,11.7,0,23.5,0,35.2c-0.1,0.9-0.4,1.8-0.4,2.7c-0.7,11.1-1.2,22.3-1.9,33.4
			c-0.6,9.9-2.5,19.5-6.2,28.6c-5,12.1-13.9,19.9-26.6,21.9c-11.2,1.7-22.5,2.3-33.8,2.8c-17.9,0.8-35.8,1-53.7,1.5
			C170.5,259.8,169.2,260,167.9,260.2z M204.9,151.2c-30.4-18.4-60.2-36.5-90.3-54.7c0,36.7,0,72.7,0,109.4
			C144.7,187.6,174.5,169.6,204.9,151.2z"/>
	</g>
</g>
</svg>
